<?xml version="1.0" encoding="utf-8"?>
<!-- Generator: Adobe Illustrator 19.2.1, SVG Export Plug-In . SVG Version: 6.00 Build 0)  -->
<svg version="1.1" id="Layer_1" xmlns="http://www.w3.org/2000/svg" xmlns:xlink="http://www.w3.org/1999/xlink" x="0px" y="0px"
	 viewBox="0 0 212.2 76.4" style="enable-background:new 0 0 212.2 76.4;" xml:space="preserve">
<style type="text/css">
	.st0{enable-background:new    ;}
	.st1{fill:#FFFFFF;}
	.st2{fill:none;stroke:#FFFFFF;stroke-width:2.4748;stroke-linecap:round;stroke-linejoin:round;stroke-miterlimit:10;}
	.st3{fill:none;stroke:#E9E9E9;stroke-width:2.4748;stroke-linecap:round;stroke-linejoin:round;stroke-miterlimit:10;}
	.st4{fill:none;stroke:#E0E1E0;stroke-width:2.4748;stroke-linecap:round;stroke-linejoin:round;stroke-miterlimit:10;}
	.st5{fill:none;stroke:#D7D7D7;stroke-width:2.4748;stroke-linecap:round;stroke-linejoin:round;stroke-miterlimit:10;}
	.st6{fill:none;stroke:#CFCFCE;stroke-width:2.4748;stroke-linecap:round;stroke-linejoin:round;stroke-miterlimit:10;}
	.st7{fill:none;stroke:#C7C6C6;stroke-width:2.4748;stroke-linecap:round;stroke-linejoin:round;stroke-miterlimit:10;}
	.st8{fill:none;stroke:#BCBCBC;stroke-width:2.4748;stroke-linecap:round;stroke-linejoin:round;stroke-miterlimit:10;}
	.st9{fill:none;stroke:#B4B4B4;stroke-width:2.4748;stroke-linecap:round;stroke-linejoin:round;stroke-miterlimit:10;}
	.st10{fill:none;stroke:#ABABAA;stroke-width:2.4748;stroke-linecap:round;stroke-linejoin:round;stroke-miterlimit:10;}
	.st11{fill:none;stroke:#A2A0A0;stroke-width:2.4748;stroke-linecap:round;stroke-linejoin:round;stroke-miterlimit:10;}
	.st12{fill:none;stroke:#989897;stroke-width:2.4748;stroke-linecap:round;stroke-linejoin:round;stroke-miterlimit:10;}
	.st13{fill:none;stroke:#8E8E8D;stroke-width:2.4748;stroke-linecap:round;stroke-linejoin:round;stroke-miterlimit:10;}
	.st14{fill:none;stroke:#868686;stroke-width:2.4748;stroke-linecap:round;stroke-linejoin:round;stroke-miterlimit:10;}
	.st15{fill:none;stroke:#818181;stroke-width:2.4748;stroke-linecap:round;stroke-linejoin:round;stroke-miterlimit:10;}
	.st16{fill:none;stroke:#7A7A79;stroke-width:2.4748;stroke-linecap:round;stroke-linejoin:round;stroke-miterlimit:10;}
</style>
<g>
	<g class="st0">
		<path class="st1" d="M84.1,71.9V61.5H82V60h6v1.5h-2.1v10.4H84.1z"/>
		<path class="st1" d="M88.8,71.9V60h1.7v5.1h3V60h1.7v11.9h-1.7v-5.5h-3v5.5H88.8z"/>
		<path class="st1" d="M96.8,71.9V60h4.7v1.3h-3v3.8h2.1v1.3h-2.1v4.3h3v1.3H96.8z"/>
		<path class="st1" d="M105.3,71.9V60h2.1c1.3,0,2.2,0.2,2.9,0.7c0.6,0.5,1,1.3,1,2.5c0,0.7-0.1,1.3-0.4,1.8c-0.3,0.5-0.6,0.8-1.1,1
			l1.9,6H110l-1.7-5.5H107v5.5H105.3z M107,65.1h0.4c0.7,0,1.2-0.1,1.6-0.4c0.4-0.3,0.5-0.8,0.5-1.5s-0.2-1.2-0.5-1.5
			s-0.9-0.4-1.6-0.4H107V65.1z"/>
		<path class="st1" d="M111.9,71.9l2.6-11.9h1.7l2.6,11.9H117l-0.6-3h-2.1l-0.6,3H111.9z M114.5,67.7h1.7l-0.9-5.1L114.5,67.7z"/>
		<path class="st1" d="M122.7,72.1c-0.5,0-0.9-0.1-1.3-0.2s-0.7-0.3-0.9-0.6c-0.2-0.2-0.4-0.6-0.6-0.9c-0.2-0.4-0.3-0.8-0.3-1.2
			c-0.1-0.4-0.1-0.9-0.1-1.4v-3.4c0-0.5,0-1,0.1-1.4c0.1-0.4,0.2-0.8,0.3-1.2c0.2-0.4,0.4-0.7,0.6-0.9c0.2-0.2,0.6-0.4,0.9-0.6
			c0.4-0.1,0.8-0.2,1.3-0.2c0.6,0,1,0.1,1.4,0.2c0.4,0.2,0.7,0.4,1,0.7c0.2,0.3,0.4,0.7,0.5,1.1s0.2,0.9,0.2,1.5c0,0.1,0,0.2,0,0.4
			h-1.7v-0.4c0-0.2,0-0.4,0-0.6c0-0.2,0-0.3-0.1-0.5c0-0.2-0.1-0.3-0.2-0.4c-0.1-0.1-0.2-0.2-0.3-0.3s-0.2-0.2-0.4-0.2
			c-0.2,0-0.3-0.1-0.6-0.1c-0.3,0-0.5,0-0.7,0.1s-0.4,0.2-0.5,0.3c-0.1,0.1-0.2,0.3-0.3,0.6c-0.1,0.2-0.1,0.5-0.1,0.7
			c0,0.2,0,0.5,0,0.8v4.3c0,0.3,0,0.5,0,0.8s0.1,0.5,0.1,0.7c0.1,0.2,0.2,0.4,0.3,0.6c0.1,0.2,0.3,0.3,0.5,0.4s0.4,0.1,0.7,0.1
			c0.3,0,0.5,0,0.7-0.1c0.2-0.1,0.3-0.2,0.4-0.4c0.1-0.2,0.2-0.3,0.2-0.6c0.1-0.2,0.1-0.5,0.1-0.7c0-0.2,0-0.5,0-0.8v-0.4h1.7v0.4
			c0,0.6-0.1,1.2-0.2,1.6c-0.1,0.5-0.3,0.9-0.5,1.2c-0.2,0.4-0.6,0.6-1,0.8C123.8,72,123.3,72.1,122.7,72.1z"/>
		<path class="st1" d="M127.1,71.9V60h1.7v11.9H127.1z"/>
		<path class="st1" d="M130.6,71.9V60h1.3l3,7.4V60h1.7v11.9h-1.2l-3-7.9v7.9H130.6z"/>
		<path class="st1" d="M141.4,72.1c-0.5,0-1-0.1-1.4-0.2c-0.4-0.2-0.7-0.4-1-0.6c-0.3-0.3-0.5-0.6-0.6-1c-0.2-0.4-0.3-0.8-0.3-1.3
			c-0.1-0.5-0.1-1-0.1-1.6v-3c0-2.9,1.2-4.4,3.5-4.4c0.6,0,1,0.1,1.4,0.2c0.4,0.2,0.7,0.4,1,0.7c0.3,0.3,0.4,0.7,0.6,1.1
			c0.1,0.4,0.2,0.9,0.2,1.5c0,0.1,0,0.2,0,0.4h-1.7v-0.4c0-0.3,0-0.5,0-0.7c0-0.2-0.1-0.4-0.1-0.6c-0.1-0.2-0.2-0.4-0.3-0.5
			c-0.1-0.1-0.3-0.2-0.4-0.3s-0.4-0.1-0.7-0.1c-0.3,0-0.6,0.1-0.9,0.2c-0.2,0.1-0.4,0.3-0.5,0.6c-0.1,0.2-0.2,0.5-0.3,0.8
			c-0.1,0.3-0.1,0.6-0.1,1v3.8c0,0.3,0,0.5,0,0.8c0,0.2,0,0.5,0.1,0.7c0,0.2,0.1,0.4,0.2,0.6c0.1,0.2,0.2,0.3,0.3,0.5
			s0.3,0.2,0.5,0.3c0.2,0.1,0.4,0.1,0.6,0.1c0.3,0,0.5-0.1,0.7-0.2c0.2-0.1,0.4-0.3,0.5-0.4s0.2-0.4,0.3-0.7
			c0.1-0.3,0.1-0.5,0.1-0.8c0-0.3,0-0.6,0-0.9v-0.4h-1.7V66h3.4v5.9h-1.3l-0.4-1.3C142.8,71.6,142.3,72.1,141.4,72.1z"/>
		<path class="st1" d="M149,71.9V60h2.4l1.7,9.1l1.7-9.1h2.4v11.9h-1.7v-9.4l-1.7,9.4h-1.3l-1.7-9.4v9.4H149z"/>
		<path class="st1" d="M158,71.9l2.6-11.9h1.7l2.6,11.9h-1.7l-0.6-3h-2.1l-0.6,3H158z M160.6,67.7h1.7l-0.9-5.1L160.6,67.7z"/>
		<path class="st1" d="M165.8,71.9V60h1.3l3,7.4V60h1.7v11.9h-1.2l-3-7.9v7.9H165.8z"/>
		<path class="st1" d="M172.7,71.9l2.6-11.9h1.7l2.6,11.9h-1.7l-0.6-3H175l-0.6,3H172.7z M175.3,67.7h1.7l-0.9-5.1L175.3,67.7z"/>
		<path class="st1" d="M183.6,72.1c-0.5,0-1-0.1-1.4-0.2c-0.4-0.2-0.7-0.4-1-0.6c-0.3-0.3-0.5-0.6-0.6-1c-0.2-0.4-0.3-0.8-0.3-1.3
			c-0.1-0.5-0.1-1-0.1-1.6v-3c0-2.9,1.2-4.4,3.5-4.4c0.6,0,1,0.1,1.4,0.2c0.4,0.2,0.7,0.4,1,0.7c0.3,0.3,0.4,0.7,0.6,1.1
			c0.1,0.4,0.2,0.9,0.2,1.5c0,0.1,0,0.2,0,0.4h-1.7v-0.4c0-0.3,0-0.5,0-0.7c0-0.2-0.1-0.4-0.1-0.6c-0.1-0.2-0.2-0.4-0.3-0.5
			c-0.1-0.1-0.3-0.2-0.4-0.3s-0.4-0.1-0.7-0.1c-0.3,0-0.6,0.1-0.9,0.2c-0.2,0.1-0.4,0.3-0.5,0.6c-0.1,0.2-0.2,0.5-0.3,0.8
			c-0.1,0.3-0.1,0.6-0.1,1v3.8c0,0.3,0,0.5,0,0.8c0,0.2,0,0.5,0.1,0.7c0,0.2,0.1,0.4,0.2,0.6c0.1,0.2,0.2,0.3,0.3,0.5
			s0.3,0.2,0.5,0.3c0.2,0.1,0.4,0.1,0.6,0.1c0.3,0,0.5-0.1,0.7-0.2c0.2-0.1,0.4-0.3,0.5-0.4s0.2-0.4,0.3-0.7
			c0.1-0.3,0.1-0.5,0.1-0.8c0-0.3,0-0.6,0-0.9v-0.4h-1.7V66h3.4v5.9h-1.3l-0.4-1.3C184.9,71.6,184.4,72.1,183.6,72.1z"/>
		<path class="st1" d="M188.3,71.9V60h4.7v1.3h-3v3.8h2.1v1.3H190v4.3h3v1.3H188.3z"/>
		<path class="st1" d="M194.1,71.9V60h2.1c1.3,0,2.2,0.2,2.9,0.7c0.6,0.5,1,1.3,1,2.5c0,0.7-0.1,1.3-0.4,1.8s-0.6,0.8-1.1,1l1.9,6
			h-1.7l-1.7-5.5h-1.3v5.5H194.1z M195.8,65.1h0.4c0.7,0,1.2-0.1,1.6-0.4c0.4-0.3,0.5-0.8,0.5-1.5s-0.2-1.2-0.5-1.5
			s-0.9-0.4-1.6-0.4h-0.4V65.1z"/>
	</g>
	<path id="_x31__12_" class="st2" d="M1.3,2c6.9,0.3,12.9,2.4,19,2.7C28.5,5.2,39,5.4,47.4,5.4c17.2,0,28.9-2.3,40.4-3
		c15.6-1.1,27.2-0.9,31.3-0.9c24.1,0,50.9-0.1,52.9-0.2c3.8-0.2,8.6,0.4,13.9,0.8c6.1,0.4,12.6,0.3,12.6,0.3"/>
	<path id="_x32__12_" class="st3" d="M158,10.8c0,0-19.9-0.1-32.7-1.6c-5.6-0.6-12.8-0.8-19.8-1.2c-8.5-0.5-17-1.3-23.1-1.7
		c-2-0.1-13-0.6-28.9,0.3c-11.4,0.6-28,2.5-43.7,2.7C7,9.3,4.2,9.4,1.3,9.5"/>
	<path id="_x33__12_" class="st4" d="M211,13.7c0,0-4.7-0.1-12.9-0.8c-4.2-0.3-8.9-1.1-14.5-2c-3.5-0.5-7.5-0.6-11.6-1.1
		c-11.4-1.6-23.3-2.4-42.5-2.8c-5.1-0.1-9.9-0.4-15-0.5C107,6.3,99,6.6,89.6,7.8c-7.5,1-13.8,1.6-23,3.1c-3.5,0.6-7.2,0.4-10,0.8
		c-12.1,1.7-24.1,2.6-34.7,2.1c-3.9-0.2-7.8-0.4-11.7-0.6c-2.8-0.2-5.9-0.5-9-0.9"/>
	<path id="_x34__12_" class="st5" d="M146.6,17.1c0,0-7.1,0-15.9-0.6c-2.7-0.2-6.9-0.1-9.5-0.2c-7-0.3-10.8-0.9-13.3-0.9
		c-8.1-0.1-12.2,0.2-20.5,0.5c-3,0.1-5.4-0.4-6.8-0.4c-0.5,0-4.2,0.6-10.6,0.6c-2.8,0-6.2-0.4-10.2-0.2c-8.3,0.4-16.8,1.8-29.1,0.2
		c-10.9-1.4-14.4-2.6-20.4-2.8c-1.9-0.1-5.2,0.2-9,0.5"/>
	<path id="_x35__12_" class="st6" d="M183.7,14.9c0,0-5.7-1-14.5-1.2c-9.9-0.2-22.3,1-36.5,0.8c-9-0.2-17.6,2.1-25.1,2
		c-3.3,0-11.5,1.2-20,1.8c-10.3,0.7-20.9,0.7-24,0.6c-11.4-0.3-17.8,3.5-35.4,1.4c-9.1-1.1-16-0.1-26.9-1.8"/>
	<path id="_x36__12_" class="st7" d="M1.3,27.4c5.8,0.1,11.5,0.2,17.1-0.1C23.8,27.1,29,26.4,34,26c6.1-0.5,12.1-0.6,17.5-1.9
		c6.4-1.6,12-4.2,18.8-5.3c6.5-1.1,12.9-0.5,18.5-0.3c3.3,0.1,7.1,0.5,10.7,0.6c3.4,0.1,6.6,0,9,0.3c3.6,0.4,5.8,1.5,11,1.9
		c4.3,0.3,12.8,2.7,20.5,4.7c8,2.1,13.8,2.3,13.8,2.3"/>
	<path id="_x37__12_" class="st8" d="M1.3,20.4c4.3,0.3,7.6,1.1,12.5,2.4c5.3,1.4,13.5,2.1,21.3,3c9.7,1.1,13.5,2.4,26.6,1.5
		c15.9-1.1,31.2-1.7,44.2-3.7c9.5-1.4,19.5-2.1,27.9-2.7c4.1-0.3,7.8-0.7,10.7-0.7c11.3-0.2,16.3-0.7,19.8-0.7s9.9,0.5,15.4,0.6
		c6.7,0.1,12.6-0.2,12.6-0.2"/>
	<path id="_x38__12_" class="st9" d="M16.1,25.5c3.7,0,14.9,2.8,25.6,5.1c11.1,2.4,21.7,2,29.1,2c7.1,0,6.9,2.6,25.5,2.7
		c4.2,0,3.2,1.9,5.5,1.9c2.5,0,1.9-1.5,9.2-3.4c5.5-1.4,11.1-0.6,16.7-0.4c5.2,0.3,9.2-0.2,9.2-0.2"/>
	<path id="_x39__12_" class="st10" d="M1.3,28c2.9,0.4,6.6,0.8,12.4,0.6c7.9-0.2,14.3,0.6,19.6,0.7c7.2,0.2,12.4-1.3,14-1.6
		c11.6-1.9,15-0.7,21.3-0.7c9.5,0,16.3-0.7,25-0.3c2.6,0.1,4.8-0.4,7.3-0.4c8.3,0.3,17.7,1.1,24.9,1.1c15.7,0.2,25.9-0.5,28.4-0.7
		c7.4-0.5,15-0.2,21-0.1c6.7,0.1,11.3,0,11.3,0"/>
	<path id="_x31_0_12_" class="st11" d="M1.2,25.5c13.1,0.2,20,2,36,2.2c20.6,0.2,35,4.9,54,5.1c22.4,0.2,33,4.3,38,4.2
		c3-0.1,2.9-1.7,4.7-2.1c3.6-0.8,7.5-0.5,7.5-0.5"/>
	<path id="_x31_1_12_" class="st12" d="M1.3,39.3c3.1-0.4,7-0.7,8.8-0.6C23,39.2,34.3,39.4,46.4,39c6.1-0.2,14.6-1.2,23.2-2.6
		c7.1-1.1,14.1-3,20.1-3.1c18.7-0.6,19-5.9,48.1-6c6.4,0,11.8,0.4,16.2,0.6c6.8,0.4,11.2,0.8,12.2,1.1c2.2,0.5,4.7,1.7,7.6,2.5
		c3,0.8,6.4,1.2,8.9,2.2c7.3,3,11.6,6.3,11.6,6.3"/>
	<path id="_x31_2_12_" class="st13" d="M1.3,31.4c10.2,0.7,11.1,2.6,18.2,7.1c12.1,7.7,13.8,6.4,13.9,6.2c0.6-0.9,9.5-2.9,13.7-3.2
		c13.6-1,24.9-1.9,27.1-2.1c13.5-0.9,17.4-0.2,25.4-0.3c3.4-0.1,17.2-0.1,24.2-1.9c9.4-2.4,17.8-4.7,21.8-5.4
		c12.9-2.4,22.4-1.8,24-1.8c13.3-0.1,33,2.4,33,2.4"/>
	<path id="_x31_3_12_" class="st14" d="M1.3,39.4c4.1-0.3,7.4-0.9,13.4-0.8c9,0.1,19.8,11.3,20,10.1c0.2-1.3,1.4-0.7,4.2-1.6
		c1.7-0.5,3.6-1.6,5.8-2.2c5.1-1.2,5.1-4,7.4-5.6c2-1.4,7.7-3.3,9.1-3.8c10.2-3.2,26.4-2.2,37.4-2.5c14.3-0.4,22.6,3.9,32.6,5.5
		c16.9,2.7,30.1,2.1,32.6,2.1c11.4,0,24.8-1.4,35.3-1.9c7-0.3,11.8,0,11.8,0"/>
	<path id="_x31_4_12_" class="st15" d="M1.3,40.5c0.5,0,1,0,1.4,0.1c3.1,0.1,6.5,0.1,10.1,0.2c5.3,0.2,10.8,0.7,15.6,1.4
		c6.2,0.9,12,1.3,17.5,1.1c2.9-0.1,6.3-1.6,10.3-2.1c6.6-1,14.3-1.1,18.8-0.6c7.1,0.8,13.3,1.5,18.8,2.2c3.7,0.5,6.2,2.4,9.1,2.9
		c1.7,0.3,3.8,1,4.2,1.6c0.4,0.6-1.8,1.6,1.1,1c3-0.6,1.7-1.7,2.9-2.4c2.6-1.3,5.2-0.3,6.6-1c2.2-1.2,3.6-3.8,5.9-5.5
		c3.2-2.3,6.5-3.9,6.5-3.9"/>
	<path id="_x31_5_12_" class="st15" d="M1.3,47.4c2.1-0.7,5.2-1.5,8.7-2.5c6.7-1.9,12.2-4.1,23.8-5.6c11.5-1.5,23.3-1.3,30.4-0.5
		c13.2,1.5,24.9,1.3,36.2,0.9c13.9-0.4,26.3-1.3,37-1.6c20.2-0.6,20.2-3.1,36.5-1.6c6.2,0.6,13.7,3.2,18.4,5.9c4.5,2.5,6.4,5,6.4,5"
		/>
	<path id="_x31_6_12_" class="st16" d="M1.3,38.7c6.8,0.5,13.4,1,19.8,1.4C33.2,41,42.8,41,52.8,40.9c11.5-0.2,20.4,0.9,30.3,0.8
		c8.3-0.1,16.2-1.3,20.8-1.1c5.9,0.3,10.9,0.7,16.4,1.9c4.4,0.9,8.3,2.4,12.1,3.8c1.8,0.7,3.2,2.4,2.3,2.6"/>
</g>
</svg>
