<?xml version="1.0" standalone="no"?><!DOCTYPE svg PUBLIC "-//W3C//DTD SVG 1.1//EN" "http://www.w3.org/Graphics/SVG/1.1/DTD/svg11.dtd"><svg width="100%" height="100%" viewBox="0 0 66 17" version="1.1" xmlns="http://www.w3.org/2000/svg" xmlns:xlink="http://www.w3.org/1999/xlink" xml:space="preserve" style="fill-rule:evenodd;clip-rule:evenodd;stroke-linecap:round;stroke-miterlimit:1.41421;"><g><path id="_x31__1_" d="M-0.596,1.069c2.1,0.075 3.975,0.75 5.85,0.825c2.55,0.15 5.775,0.225 8.4,0.225c5.325,0 8.925,-0.675 12.525,-0.975c4.8,-0.3 8.4,-0.225 9.675,-0.225c7.5,0 15.75,-0.075 16.35,-0.075c1.2,-0.075 2.625,0.15 4.275,0.225c1.875,0.15 3.9,0.075 3.9,0.075" style="fill:none;stroke-width:0.96px;stroke:#ea8090;"/><path id="_x32__1_" d="M47.854,3.769c0,0 -6.15,0 -10.125,-0.45c-1.725,-0.225 -3.975,-0.225 -6.15,-0.375c-2.625,-0.15 -5.25,-0.375 -7.125,-0.525c-0.6,0 -4.05,-0.15 -8.925,0.075c-3.525,0.225 -8.625,0.75 -13.5,0.825c-0.825,0 -1.725,0 -2.625,0.075" style="fill:none;stroke-width:0.96px;stroke:#da808b;"/><path id="_x33__1_" d="M64.279,4.669c0,0 -1.425,0 -3.975,-0.225c-1.275,-0.075 -2.775,-0.375 -4.5,-0.6c-1.125,-0.15 -2.325,-0.15 -3.6,-0.375c-3.525,-0.525 -7.2,-0.75 -13.2,-0.825c-1.575,0 -3.075,-0.15 -4.65,-0.15c-2.325,-0.075 -4.8,0 -7.725,0.375c-2.325,0.3 -4.275,0.525 -7.125,0.975c-1.05,0.15 -2.25,0.15 -3.075,0.225c-3.75,0.525 -7.425,0.825 -10.725,0.675c-1.2,-0.075 -2.4,-0.15 -3.6,-0.225c-0.9,-0.075 -1.8,-0.15 -2.775,-0.3" style="fill:none;stroke-width:0.96px;stroke:#cc7c86;"/><path id="_x34__1_" d="M44.329,5.719c0,0 -2.175,0 -4.875,-0.15c-0.825,-0.075 -2.1,0 -2.925,-0.075c-2.175,-0.075 -3.375,-0.3 -4.125,-0.3c-2.55,-0.075 -3.75,0.075 -6.375,0.15c-0.9,0 -1.65,-0.15 -2.1,-0.075c-0.15,0 -1.275,0.15 -3.3,0.225c-0.9,0 -1.95,-0.15 -3.15,-0.075c-2.55,0.075 -5.175,0.6 -9,0.075c-3.375,-0.45 -4.5,-0.825 -6.3,-0.825c-0.6,0 -1.575,0.075 -2.775,0.15" style="fill:none;stroke-width:0.96px;stroke:#bf7882;"/><path id="_x35__1_" d="M55.804,5.044c0,0 -1.8,-0.3 -4.5,-0.375c-3.075,-0.075 -6.9,0.3 -11.25,0.225c-2.775,-0.075 -5.475,0.675 -7.8,0.6c-1.05,0 -3.525,0.375 -6.225,0.525c-3.15,0.225 -6.45,0.225 -7.425,0.225c-3.525,-0.075 -5.475,1.05 -10.95,0.45c-2.775,-0.3 -4.95,0 -8.325,-0.525" style="fill:none;stroke-width:0.96px;stroke:#b17280;"/><path id="_x36__1_" d="M-0.596,8.869c1.8,0 3.6,0.075 5.325,0c1.65,-0.075 3.3,-0.3 4.875,-0.375c1.875,-0.15 3.75,-0.15 5.4,-0.6c1.95,-0.45 3.75,-1.275 5.85,-1.65c2.025,-0.3 3.975,-0.15 5.7,-0.075c0.975,0.075 2.175,0.15 3.3,0.225c1.05,0.075 2.025,0 2.775,0.075c1.125,0.15 1.8,0.45 3.375,0.6c1.35,0.075 3.975,0.825 6.375,1.425c2.475,0.675 4.275,0.675 4.275,0.675" style="fill:none;stroke-width:0.96px;stroke:#a36d80;"/><path id="_x37__1_" d="M-0.596,6.769c1.35,0.075 2.325,0.375 3.9,0.75c1.65,0.45 4.2,0.675 6.6,0.9c3,0.375 4.2,0.75 8.25,0.45c4.875,-0.375 9.675,-0.525 13.65,-1.125c2.925,-0.45 6,-0.675 8.625,-0.825c1.275,-0.075 2.4,-0.225 3.3,-0.225c3.525,-0.075 5.025,-0.225 6.15,-0.225c1.05,0 3.075,0.15 4.725,0.225c2.1,0.075 3.9,-0.075 3.9,-0.075" style="fill:none;stroke-width:0.96px;stroke:#95687e;"/><path id="_x38__1_" d="M3.979,8.269c1.125,0 4.65,0.9 7.95,1.575c3.45,0.75 6.75,0.6 9,0.6c2.175,0 2.1,0.825 7.875,0.825c1.275,0 0.975,0.6 1.725,0.6c0.75,0 0.6,-0.45 2.85,-1.05c1.725,-0.45 3.45,-0.225 5.175,-0.075c1.575,0.075 2.85,-0.075 2.85,-0.075" style="fill:none;stroke-width:0.96px;stroke:#88627a;"/><path id="_x39__1_" d="M-0.596,9.094c0.9,0.15 2.025,0.225 3.825,0.225c2.4,-0.075 4.425,0.15 6.075,0.225c2.25,0.075 3.825,-0.375 4.35,-0.525c3.6,-0.6 4.65,-0.225 6.6,-0.225c2.925,0 5.025,-0.225 7.725,-0.075c0.825,0.075 1.5,-0.15 2.25,-0.075c2.55,0.075 5.475,0.3 7.725,0.375c4.875,0.075 8.025,-0.15 8.775,-0.225c2.325,-0.15 4.65,-0.075 6.525,0c2.025,0 3.525,0 3.525,0" style="fill:none;stroke-width:0.96px;stroke:#805c75;"/><path id="_x31_0_1_" d="M-0.671,8.344c4.05,0.075 6.15,0.6 11.175,0.675c6.375,0.075 10.8,1.5 16.725,1.575c6.9,0.075 10.2,1.35 11.775,1.275c0.9,0 0.9,-0.525 1.5,-0.675c1.125,-0.225 2.325,-0.15 2.325,-0.15" style="fill:none;stroke-width:0.96px;stroke:#765871;"/><path id="_x31_1_1_" d="M-0.596,12.544c0.975,-0.15 2.175,-0.225 2.7,-0.15c3.975,0.15 7.5,0.225 11.25,0.15c1.875,-0.075 4.5,-0.375 7.2,-0.825c2.175,-0.375 4.35,-0.9 6.225,-0.975c5.775,-0.15 5.85,-1.8 14.85,-1.875c1.95,0 3.675,0.075 5.025,0.225c2.1,0.15 3.45,0.225 3.75,0.3c0.675,0.15 1.5,0.525 2.4,0.75c0.975,0.225 2.025,0.375 2.775,0.675c2.25,0.9 3.6,1.95 3.6,1.95" style="fill:none;stroke-width:0.96px;stroke:#69526b;"/><path id="_x31_2_1_" d="M-0.596,10.144c3.15,0.225 3.45,0.825 5.625,2.175c3.75,2.4 4.275,1.95 4.275,1.95c0.15,-0.3 2.925,-0.9 4.2,-0.975c4.2,-0.3 7.725,-0.6 8.4,-0.6c4.2,-0.3 5.4,-0.075 7.875,-0.075c1.05,0 5.325,-0.075 7.5,-0.6c2.925,-0.75 5.55,-1.425 6.75,-1.65c3.975,-0.75 6.9,-0.525 7.425,-0.525c4.125,0 10.2,0.75 10.2,0.75" style="fill:none;stroke-width:0.96px;stroke:#5b4c67;"/><path id="_x31_3_1_" d="M-0.596,12.619c1.275,-0.075 2.25,-0.3 4.125,-0.225c2.775,0.075 6.15,3.525 6.15,3.15c0.075,-0.375 0.45,-0.225 1.35,-0.525c0.525,-0.15 1.125,-0.525 1.8,-0.675c1.575,-0.375 1.575,-1.275 2.325,-1.725c0.6,-0.45 2.4,-1.05 2.85,-1.2c3.15,-0.975 8.175,-0.675 11.55,-0.75c4.425,-0.075 6.975,1.2 10.125,1.725c5.25,0.825 9.3,0.675 10.125,0.675c3.525,0 7.65,-0.45 10.875,-0.6c2.175,-0.075 3.675,0 3.675,0" style="fill:none;stroke-width:0.96px;stroke:#4c4662;"/><path id="_x31_4_1_" d="M-0.596,12.919c0.15,0 0.3,0 0.45,0c0.975,0.075 2.025,0 3.15,0.075c1.65,0.075 3.375,0.225 4.8,0.45c1.95,0.3 3.75,0.45 5.4,0.375c0.9,0 1.95,-0.45 3.225,-0.675c2.025,-0.3 4.425,-0.375 5.85,-0.225c2.175,0.225 4.125,0.45 5.775,0.675c1.125,0.15 1.95,0.75 2.85,0.9c0.525,0.075 1.2,0.3 1.275,0.525c0.15,0.225 -0.6,0.45 0.375,0.3c0.975,-0.15 0.525,-0.525 0.9,-0.75c0.825,-0.45 1.575,-0.075 2.025,-0.3c0.675,-0.375 1.125,-1.2 1.8,-1.725c0.975,-0.675 2.025,-1.2 2.025,-1.2" style="fill:none;stroke-width:0.96px;stroke:#40415d;"/><path id="_x31_5_1_" d="M-0.596,15.094c0.675,-0.225 1.575,-0.45 2.7,-0.75c2.025,-0.6 3.75,-1.275 7.35,-1.725c3.525,-0.45 7.2,-0.375 9.45,-0.15c4.05,0.45 7.725,0.375 11.175,0.3c4.275,-0.15 8.175,-0.375 11.475,-0.45c6.225,-0.15 6.225,-0.975 11.325,-0.525c1.875,0.15 4.2,0.975 5.7,1.8c1.425,0.75 1.95,1.5 1.95,1.5" style="fill:none;stroke-width:0.96px;stroke:#313b59;"/><path id="_x31_6_1_" d="M-0.596,12.394c2.1,0.15 4.125,0.3 6.15,0.45c3.75,0.225 6.675,0.3 9.75,0.225c3.6,-0.075 6.3,0.3 9.375,0.225c2.55,0 5.025,-0.375 6.45,-0.3c1.8,0.075 3.375,0.225 5.1,0.6c1.35,0.3 2.55,0.75 3.75,1.2c0.6,0.225 0.975,0.75 0.75,0.825" style="fill:none;stroke-width:0.96px;stroke:#223654;"/></g></svg>