<?xml version="1.0" encoding="utf-8"?>
<!-- Generator: Adobe Illustrator 19.2.1, SVG Export Plug-In . SVG Version: 6.00 Build 0)  -->
<svg version="1.1" id="Layer_1" xmlns="http://www.w3.org/2000/svg" xmlns:xlink="http://www.w3.org/1999/xlink" x="0px" y="0px"
	 viewBox="0 0 968.5 968.8" style="enable-background:new 0 0 968.5 968.8;" xml:space="preserve">
<style type="text/css">
	.st0{clip-path:url(#SVGID_2_);}
	.st1{fill:none;stroke:#13243A;stroke-width:13.5729;stroke-miterlimit:10;}
</style>
<g>
	<g>
		<defs>
			<rect id="SVGID_1_" y="0" width="968.5" height="968.8"/>
		</defs>
		<clipPath id="SVGID_2_">
			<use xlink:href="#SVGID_1_"  style="overflow:visible;"/>
		</clipPath>
		<g class="st0">
			<g>
				<path class="st1" d="M7582.2,63.3c-236.9,0-236.9-67.4-473.9-67.4c-236.9,0-236.9,67.4-473.9,67.4
					c-236.9,0-236.9-67.4-473.9-67.4c-236.9,0-236.9,67.4-473.9,67.4c-236.9,0-236.9-67.4-473.9-67.4
					c-236.9,0-236.9,67.4-473.9,67.4c-236.9,0-236.9-67.4-473.9-67.4C4028-4.1,4028,63.3,3791,63.3c-236.9,0-236.9-67.4-473.9-67.4
					c-236.9,0-236.9,67.4-473.9,67.4c-236.9,0-236.9-67.4-473.9-67.4c-236.9,0-236.9,67.4-473.9,67.4
					c-236.9,0-236.9-67.4-473.9-67.4c-236.9,0-236.9,67.4-473.9,67.4c-236.9,0-236.9-67.4-473.9-67.4C236.9-4.1,236.9,63.3,0,63.3"
					/>
			</g>
			<g>
				<path class="st1" d="M7582.2,21.2c-236.9,0-236.9-67.4-473.9-67.4c-236.9,0-236.9,67.4-473.9,67.4
					c-236.9,0-236.9-67.4-473.9-67.4c-236.9,0-236.9,67.4-473.9,67.4c-236.9,0-236.9-67.4-473.9-67.4
					c-236.9,0-236.9,67.4-473.9,67.4c-236.9,0-236.9-67.4-473.9-67.4C4028-46.2,4028,21.2,3791,21.2c-236.9,0-236.9-67.4-473.9-67.4
					c-236.9,0-236.9,67.4-473.9,67.4c-236.9,0-236.9-67.4-473.9-67.4c-236.9,0-236.9,67.4-473.9,67.4
					c-236.9,0-236.9-67.4-473.9-67.4c-236.9,0-236.9,67.4-473.9,67.4c-236.9,0-236.9-67.4-473.9-67.4C236.9-46.2,236.9,21.2,0,21.2"
					/>
			</g>
			<g>
				<path class="st1" d="M7582.2,105.4c-236.9,0-236.9-67.4-473.9-67.4c-236.9,0-236.9,67.4-473.9,67.4
					c-236.9,0-236.9-67.4-473.9-67.4c-236.9,0-236.9,67.4-473.9,67.4c-236.9,0-236.9-67.4-473.9-67.4
					c-236.9,0-236.9,67.4-473.9,67.4S4501.9,38,4265,38s-236.9,67.4-473.9,67.4c-236.9,0-236.9-67.4-473.9-67.4
					c-236.9,0-236.9,67.4-473.9,67.4c-236.9,0-236.9-67.4-473.9-67.4c-236.9,0-236.9,67.4-473.9,67.4S1658.6,38,1421.7,38
					s-236.9,67.4-473.9,67.4S710.8,38,473.9,38c-237,0-237,67.4-473.9,67.4"/>
			</g>
			<g>
				<path class="st1" d="M7582.2,147.6c-236.9,0-236.9-67.4-473.9-67.4c-236.9,0-236.9,67.4-473.9,67.4
					c-236.9,0-236.9-67.4-473.9-67.4c-236.9,0-236.9,67.4-473.9,67.4c-236.9,0-236.9-67.4-473.9-67.4s-236.9,67.4-473.9,67.4
					c-236.9,0-236.9-67.4-473.9-67.4c-236.9,0-236.9,67.4-473.9,67.4c-236.9,0-236.9-67.4-473.9-67.4
					c-236.9,0-236.9,67.4-473.9,67.4c-236.9,0-236.9-67.4-473.9-67.4c-236.9,0-236.9,67.4-473.9,67.4
					c-236.9,0-236.9-67.4-473.9-67.4s-236.9,67.4-473.9,67.4c-236.9,0-236.9-67.4-473.9-67.4S236.9,147.6,0,147.6"/>
			</g>
			<g>
				<path class="st1" d="M7582.2,189.7c-236.9,0-236.9-67.4-473.9-67.4c-236.9,0-236.9,67.4-473.9,67.4
					c-236.9,0-236.9-67.4-473.9-67.4c-236.9,0-236.9,67.4-473.9,67.4c-236.9,0-236.9-67.4-473.9-67.4
					c-236.9,0-236.9,67.4-473.9,67.4c-236.9,0-236.9-67.4-473.9-67.4c-236.9,0-236.9,67.4-473.9,67.4
					c-236.9,0-236.9-67.4-473.9-67.4c-236.9,0-236.9,67.4-473.9,67.4c-236.9,0-236.9-67.4-473.9-67.4
					c-236.9,0-236.9,67.4-473.9,67.4c-236.9,0-236.9-67.4-473.9-67.4c-236.9,0-236.9,67.4-473.9,67.4
					c-236.9,0-236.9-67.4-473.9-67.4c-236.9,0-236.9,67.4-473.9,67.4"/>
			</g>
			<g>
				<path class="st1" d="M7582.2,231.8c-236.9,0-236.9-67.4-473.9-67.4c-236.9,0-236.9,67.4-473.9,67.4
					c-236.9,0-236.9-67.4-473.9-67.4c-236.9,0-236.9,67.4-473.9,67.4c-236.9,0-236.9-67.4-473.9-67.4
					c-236.9,0-236.9,67.4-473.9,67.4c-236.9,0-236.9-67.4-473.9-67.4c-236.9,0-236.9,67.4-473.9,67.4
					c-236.9,0-236.9-67.4-473.9-67.4c-236.9,0-236.9,67.4-473.9,67.4c-236.9,0-236.9-67.4-473.9-67.4
					c-236.9,0-236.9,67.4-473.9,67.4c-236.9,0-236.9-67.4-473.9-67.4c-236.9,0-236.9,67.4-473.9,67.4
					c-236.9,0-236.9-67.4-473.9-67.4c-236.9,0-236.9,67.4-473.9,67.4"/>
			</g>
			<g>
				<path class="st1" d="M7582.2,273.9c-236.9,0-236.9-67.4-473.9-67.4c-236.9,0-236.9,67.4-473.9,67.4
					c-236.9,0-236.9-67.4-473.9-67.4c-236.9,0-236.9,67.4-473.9,67.4c-236.9,0-236.9-67.4-473.9-67.4
					c-236.9,0-236.9,67.4-473.9,67.4c-236.9,0-236.9-67.4-473.9-67.4c-236.9,0-236.9,67.4-473.9,67.4
					c-236.9,0-236.9-67.4-473.9-67.4c-236.9,0-236.9,67.4-473.9,67.4c-236.9,0-236.9-67.4-473.9-67.4
					c-236.9,0-236.9,67.4-473.9,67.4c-236.9,0-236.9-67.4-473.9-67.4c-236.9,0-236.9,67.4-473.9,67.4
					c-236.9,0-236.9-67.4-473.9-67.4C237,206.5,237,273.9,0,273.9"/>
			</g>
			<g>
				<path class="st1" d="M7582.2,316.1c-236.9,0-236.9-67.4-473.9-67.4c-236.9,0-236.9,67.4-473.9,67.4
					c-236.9,0-236.9-67.4-473.9-67.4c-236.9,0-236.9,67.4-473.9,67.4c-236.9,0-236.9-67.4-473.9-67.4
					c-236.9,0-236.9,67.4-473.9,67.4c-236.9,0-236.9-67.4-473.9-67.4c-236.9,0-236.9,67.4-473.9,67.4
					c-236.9,0-236.9-67.4-473.9-67.4c-236.9,0-236.9,67.4-473.9,67.4c-236.9,0-236.9-67.4-473.9-67.4
					c-236.9,0-236.9,67.4-473.9,67.4c-236.9,0-236.9-67.4-473.9-67.4c-236.9,0-236.9,67.4-473.9,67.4
					c-236.9,0-236.9-67.4-473.9-67.4C237,248.7,237,316.1,0,316.1"/>
			</g>
			<g>
				<path class="st1" d="M7582.2,358.2c-236.9,0-236.9-67.4-473.9-67.4c-236.9,0-236.9,67.4-473.9,67.4
					c-236.9,0-236.9-67.4-473.9-67.4c-236.9,0-236.9,67.4-473.9,67.4c-236.9,0-236.9-67.4-473.9-67.4
					c-236.9,0-236.9,67.4-473.9,67.4c-236.9,0-236.9-67.4-473.9-67.4c-236.9,0-236.9,67.4-473.9,67.4
					c-236.9,0-236.9-67.4-473.9-67.4c-236.9,0-236.9,67.4-473.9,67.4c-236.9,0-236.9-67.4-473.9-67.4
					c-236.9,0-236.9,67.4-473.9,67.4c-236.9,0-236.9-67.4-473.9-67.4c-236.9,0-236.9,67.4-473.9,67.4
					c-236.9,0-236.9-67.4-473.9-67.4C237,290.8,237,358.2,0,358.2"/>
			</g>
			<g>
				<path class="st1" d="M7582.2,400.3c-236.9,0-236.9-67.4-473.9-67.4c-236.9,0-236.9,67.4-473.9,67.4
					c-236.9,0-236.9-67.4-473.9-67.4c-236.9,0-236.9,67.4-473.9,67.4s-236.9-67.4-473.9-67.4c-236.9,0-236.9,67.4-473.9,67.4
					c-236.9,0-236.9-67.4-473.9-67.4c-236.9,0-236.9,67.4-473.9,67.4s-236.9-67.4-473.9-67.4c-236.9,0-236.9,67.4-473.9,67.4
					c-236.9,0-236.9-67.4-473.9-67.4c-236.9,0-236.9,67.4-473.9,67.4c-236.9,0-236.9-67.4-473.9-67.4
					c-236.9,0-236.9,67.4-473.9,67.4c-236.9,0-236.9-67.4-473.9-67.4C237,332.9,237,400.3,0,400.3"/>
			</g>
			<g>
				<path class="st1" d="M7582.2,442.4c-236.9,0-236.9-67.4-473.9-67.4c-236.9,0-236.9,67.4-473.9,67.4
					c-236.9,0-236.9-67.4-473.9-67.4c-236.9,0-236.9,67.4-473.9,67.4c-236.9,0-236.9-67.4-473.9-67.4
					c-236.9,0-236.9,67.4-473.9,67.4S4501.9,375,4265,375s-236.9,67.4-473.9,67.4c-236.9,0-236.9-67.4-473.9-67.4
					c-236.9,0-236.9,67.4-473.9,67.4c-236.9,0-236.9-67.4-473.9-67.4c-236.9,0-236.9,67.4-473.9,67.4S1658.6,375,1421.7,375
					s-236.9,67.4-473.9,67.4c-236.9,0-236.9-67.4-473.9-67.4C237,375,237,442.4,0,442.4"/>
			</g>
			<g>
				<path class="st1" d="M7582.2,484.5c-236.9,0-236.9-67.4-473.9-67.4c-236.9,0-236.9,67.4-473.9,67.4s-236.9-67.4-473.9-67.4
					c-236.9,0-236.9,67.4-473.9,67.4c-236.9,0-236.9-67.4-473.9-67.4s-236.9,67.4-473.9,67.4s-236.9-67.4-473.9-67.4
					c-236.9,0-236.9,67.4-473.9,67.4c-236.9,0-236.9-67.4-473.9-67.4c-236.9,0-236.9,67.4-473.9,67.4s-236.9-67.4-473.9-67.4
					c-236.9,0-236.9,67.4-473.9,67.4c-236.9,0-236.9-67.4-473.9-67.4s-236.9,67.4-473.9,67.4c-236.9,0-236.9-67.4-473.9-67.4
					S237,484.5,0,484.5"/>
			</g>
			<g>
				<path class="st1" d="M7582.2,526.7c-236.9,0-236.9-67.4-473.9-67.4c-236.9,0-236.9,67.4-473.9,67.4
					c-236.9,0-236.9-67.4-473.9-67.4c-236.9,0-236.9,67.4-473.9,67.4s-236.9-67.4-473.9-67.4c-236.9,0-236.9,67.4-473.9,67.4
					c-236.9,0-236.9-67.4-473.9-67.4c-236.9,0-236.9,67.4-473.9,67.4c-236.9,0-236.9-67.4-473.9-67.4
					c-236.9,0-236.9,67.4-473.9,67.4s-236.9-67.4-473.9-67.4c-236.9,0-236.9,67.4-473.9,67.4s-236.9-67.4-473.9-67.4
					s-236.9,67.4-473.9,67.4c-236.9,0-236.9-67.4-473.9-67.4S237,526.7,0,526.7"/>
			</g>
			<g>
				<path class="st1" d="M7582.2,568.8c-236.9,0-236.9-67.4-473.9-67.4c-236.9,0-236.9,67.4-473.9,67.4
					c-236.9,0-236.9-67.4-473.9-67.4c-236.9,0-236.9,67.4-473.9,67.4c-236.9,0-236.9-67.4-473.9-67.4s-236.9,67.4-473.9,67.4
					s-236.9-67.4-473.9-67.4c-236.9,0-236.9,67.4-473.9,67.4s-236.9-67.4-473.9-67.4c-236.9,0-236.9,67.4-473.9,67.4
					c-236.9,0-236.9-67.4-473.9-67.4c-236.9,0-236.9,67.4-473.9,67.4c-236.9,0-236.9-67.4-473.9-67.4s-236.9,67.4-473.9,67.4
					c-236.9,0-236.9-67.4-473.9-67.4S237,568.8,0,568.8"/>
			</g>
			<g>
				<path class="st1" d="M7582.2,610.9c-236.9,0-236.9-67.4-473.9-67.4c-236.9,0-236.9,67.4-473.9,67.4s-236.9-67.4-473.9-67.4
					c-236.9,0-236.9,67.4-473.9,67.4s-236.9-67.4-473.9-67.4c-236.9,0-236.9,67.4-473.9,67.4s-236.9-67.4-473.9-67.4
					c-236.9,0-236.9,67.4-473.9,67.4c-236.9,0-236.9-67.4-473.9-67.4c-236.9,0-236.9,67.4-473.9,67.4
					c-236.9,0-236.9-67.4-473.9-67.4c-236.9,0-236.9,67.4-473.9,67.4s-236.9-67.4-473.9-67.4c-236.9,0-236.9,67.4-473.9,67.4
					c-236.9,0-236.9-67.4-473.9-67.4C237,543.5,237,610.9,0,610.9"/>
			</g>
			<g>
				<path class="st1" d="M7582.2,653c-236.9,0-236.9-67.4-473.9-67.4c-236.9,0-236.9,67.4-473.9,67.4
					c-236.9,0-236.9-67.4-473.9-67.4c-236.9,0-236.9,67.4-473.9,67.4c-236.9,0-236.9-67.4-473.9-67.4
					c-236.9,0-236.9,67.4-473.9,67.4c-236.9,0-236.9-67.4-473.9-67.4C4028,585.6,4028,653,3791,653c-236.9,0-236.9-67.4-473.9-67.4
					c-236.9,0-236.9,67.4-473.9,67.4s-236.9-67.4-473.9-67.4c-236.9,0-236.9,67.4-473.9,67.4c-236.9,0-236.9-67.4-473.9-67.4
					c-236.9,0-236.9,67.4-473.9,67.4c-236.9,0-236.9-67.4-473.9-67.4C237,585.6,237,653,0,653"/>
			</g>
			<g>
				<path class="st1" d="M7582.2,695.2c-236.9,0-236.9-67.4-473.9-67.4c-236.9,0-236.9,67.4-473.9,67.4
					c-236.9,0-236.9-67.4-473.9-67.4c-236.9,0-236.9,67.4-473.9,67.4c-236.9,0-236.9-67.4-473.9-67.4
					c-236.9,0-236.9,67.4-473.9,67.4s-236.9-67.4-473.9-67.4c-236.9,0-236.9,67.4-473.9,67.4c-236.9,0-236.9-67.4-473.9-67.4
					c-236.9,0-236.9,67.4-473.9,67.4s-236.9-67.4-473.9-67.4c-236.9,0-236.9,67.4-473.9,67.4s-236.9-67.4-473.9-67.4
					c-236.9,0-236.9,67.4-473.9,67.4c-236.9,0-236.9-67.4-473.9-67.4C237,627.8,237,695.2,0,695.2"/>
			</g>
			<g>
				<path class="st1" d="M7582.2,737.3c-236.9,0-236.9-67.4-473.9-67.4c-236.9,0-236.9,67.4-473.9,67.4
					c-236.9,0-236.9-67.4-473.9-67.4c-236.9,0-236.9,67.4-473.9,67.4s-236.9-67.4-473.9-67.4c-236.9,0-236.9,67.4-473.9,67.4
					c-236.9,0-236.9-67.4-473.9-67.4c-236.9,0-236.9,67.4-473.9,67.4s-236.9-67.4-473.9-67.4c-236.9,0-236.9,67.4-473.9,67.4
					c-236.9,0-236.9-67.4-473.9-67.4c-236.9,0-236.9,67.4-473.9,67.4c-236.9,0-236.9-67.4-473.9-67.4
					c-236.9,0-236.9,67.4-473.9,67.4c-236.9,0-236.9-67.4-473.9-67.4C237,669.9,237,737.3,0,737.3"/>
			</g>
			<g>
				<path class="st1" d="M7582.2,779.4c-236.9,0-236.9-67.4-473.9-67.4c-236.9,0-236.9,67.4-473.9,67.4
					c-236.9,0-236.9-67.4-473.9-67.4c-236.9,0-236.9,67.4-473.9,67.4c-236.9,0-236.9-67.4-473.9-67.4
					c-236.9,0-236.9,67.4-473.9,67.4S4501.9,712,4265,712s-236.9,67.4-473.9,67.4c-236.9,0-236.9-67.4-473.9-67.4
					c-236.9,0-236.9,67.4-473.9,67.4c-236.9,0-236.9-67.4-473.9-67.4c-236.9,0-236.9,67.4-473.9,67.4S1658.6,712,1421.7,712
					s-236.9,67.4-473.9,67.4c-236.9,0-236.9-67.4-473.9-67.4C237,712,237,779.4,0,779.4"/>
			</g>
			<g>
				<path class="st1" d="M7582.2,821.5c-236.9,0-236.9-67.4-473.9-67.4c-236.9,0-236.9,67.4-473.9,67.4s-236.9-67.4-473.9-67.4
					c-236.9,0-236.9,67.4-473.9,67.4s-236.9-67.4-473.9-67.4c-236.9,0-236.9,67.4-473.9,67.4s-236.9-67.4-473.9-67.4
					c-236.9,0-236.9,67.4-473.9,67.4c-236.9,0-236.9-67.4-473.9-67.4c-236.9,0-236.9,67.4-473.9,67.4s-236.9-67.4-473.9-67.4
					c-236.9,0-236.9,67.4-473.9,67.4s-236.9-67.4-473.9-67.4c-236.9,0-236.9,67.4-473.9,67.4c-236.9,0-236.9-67.4-473.9-67.4
					C237,754.1,237,821.5,0,821.5"/>
			</g>
			<g>
				<path class="st1" d="M7582.2,863.6c-236.9,0-236.9-67.4-473.9-67.4c-236.9,0-236.9,67.4-473.9,67.4
					c-236.9,0-236.9-67.4-473.9-67.4c-236.9,0-236.9,67.4-473.9,67.4c-236.9,0-236.9-67.4-473.9-67.4
					c-236.9,0-236.9,67.4-473.9,67.4c-236.9,0-236.9-67.4-473.9-67.4c-236.9,0-236.9,67.4-473.9,67.4
					c-236.9,0-236.9-67.4-473.9-67.4c-236.9,0-236.9,67.4-473.9,67.4s-236.9-67.4-473.9-67.4c-236.9,0-236.9,67.4-473.9,67.4
					c-236.9,0-236.9-67.4-473.9-67.4c-236.9,0-236.9,67.4-473.9,67.4c-236.9,0-236.9-67.4-473.9-67.4C237,796.2,237,863.6,0,863.6"
					/>
			</g>
			<g>
				<path class="st1" d="M7582.2,905.8c-236.9,0-236.9-67.4-473.9-67.4c-236.9,0-236.9,67.4-473.9,67.4
					c-236.9,0-236.9-67.4-473.9-67.4c-236.9,0-236.9,67.4-473.9,67.4c-236.9,0-236.9-67.4-473.9-67.4
					c-236.9,0-236.9,67.4-473.9,67.4c-236.9,0-236.9-67.4-473.9-67.4c-236.9,0-236.9,67.4-473.9,67.4
					c-236.9,0-236.9-67.4-473.9-67.4c-236.9,0-236.9,67.4-473.9,67.4c-236.9,0-236.9-67.4-473.9-67.4
					c-236.9,0-236.9,67.4-473.9,67.4c-236.9,0-236.9-67.4-473.9-67.4c-236.9,0-236.9,67.4-473.9,67.4
					c-236.9,0-236.9-67.4-473.9-67.4C237,838.4,237,905.8,0,905.8"/>
			</g>
			<g>
				<path class="st1" d="M7582.2,947.9c-236.9,0-236.9-67.4-473.9-67.4c-236.9,0-236.9,67.4-473.9,67.4
					c-236.9,0-236.9-67.4-473.9-67.4c-236.9,0-236.9,67.4-473.9,67.4c-236.9,0-236.9-67.4-473.9-67.4
					c-236.9,0-236.9,67.4-473.9,67.4c-236.9,0-236.9-67.4-473.9-67.4c-236.9,0-236.9,67.4-473.9,67.4
					c-236.9,0-236.9-67.4-473.9-67.4c-236.9,0-236.9,67.4-473.9,67.4c-236.9,0-236.9-67.4-473.9-67.4
					c-236.9,0-236.9,67.4-473.9,67.4c-236.9,0-236.9-67.4-473.9-67.4c-236.9,0-236.9,67.4-473.9,67.4
					c-236.9,0-236.9-67.4-473.9-67.4C237,880.5,237,947.9,0,947.9"/>
			</g>
			<g>
				<path class="st1" d="M7582.2,990c-236.9,0-236.9-67.4-473.9-67.4c-236.9,0-236.9,67.4-473.9,67.4
					c-236.9,0-236.9-67.4-473.9-67.4c-236.9,0-236.9,67.4-473.9,67.4c-236.9,0-236.9-67.4-473.9-67.4
					c-236.9,0-236.9,67.4-473.9,67.4c-236.9,0-236.9-67.4-473.9-67.4C4028,922.6,4028,990,3791,990c-236.9,0-236.9-67.4-473.9-67.4
					c-236.9,0-236.9,67.4-473.9,67.4c-236.9,0-236.9-67.4-473.9-67.4c-236.9,0-236.9,67.4-473.9,67.4
					c-236.9,0-236.9-67.4-473.9-67.4c-236.9,0-236.9,67.4-473.9,67.4c-236.9,0-236.9-67.4-473.9-67.4C237,922.6,237,990,0,990"/>
			</g>
			<g>
				<path class="st1" d="M7582.2,1032.1c-236.9,0-236.9-67.4-473.9-67.4c-236.9,0-236.9,67.4-473.9,67.4
					c-236.9,0-236.9-67.4-473.9-67.4c-236.9,0-236.9,67.4-473.9,67.4c-236.9,0-236.9-67.4-473.9-67.4
					c-236.9,0-236.9,67.4-473.9,67.4c-236.9,0-236.9-67.4-473.9-67.4c-236.9,0-236.9,67.4-473.9,67.4
					c-236.9,0-236.9-67.4-473.9-67.4c-236.9,0-236.9,67.4-473.9,67.4c-236.9,0-236.9-67.4-473.9-67.4
					c-236.9,0-236.9,67.4-473.9,67.4c-236.9,0-236.9-67.4-473.9-67.4c-236.9,0-236.9,67.4-473.9,67.4
					c-236.9,0-236.9-67.4-473.9-67.4C237,964.7,237,1032.1,0,1032.1"/>
			</g>
			<g>
				<path class="st1" d="M7582.2,1074.3c-236.9,0-236.9-67.4-473.9-67.4c-236.9,0-236.9,67.4-473.9,67.4
					c-236.9,0-236.9-67.4-473.9-67.4c-236.9,0-236.9,67.4-473.9,67.4c-236.9,0-236.9-67.4-473.9-67.4
					c-236.9,0-236.9,67.4-473.9,67.4c-236.9,0-236.9-67.4-473.9-67.4c-236.9,0-236.9,67.4-473.9,67.4
					c-236.9,0-236.9-67.4-473.9-67.4c-236.9,0-236.9,67.4-473.9,67.4c-236.9,0-236.9-67.4-473.9-67.4
					c-236.9,0-236.9,67.4-473.9,67.4c-236.9,0-236.9-67.4-473.9-67.4c-236.9,0-236.9,67.4-473.9,67.4
					c-236.9,0-236.9-67.4-473.9-67.4c-236.9,0-236.9,67.4-473.9,67.4"/>
			</g>
			<g>
				<path class="st1" d="M7582.2,1116.4c-236.9,0-236.9-67.4-473.9-67.4c-236.9,0-236.9,67.4-473.9,67.4
					c-236.9,0-236.9-67.4-473.9-67.4c-236.9,0-236.9,67.4-473.9,67.4c-236.9,0-236.9-67.4-473.9-67.4
					c-236.9,0-236.9,67.4-473.9,67.4c-236.9,0-236.9-67.4-473.9-67.4c-236.9,0-236.9,67.4-473.9,67.4
					c-236.9,0-236.9-67.4-473.9-67.4c-236.9,0-236.9,67.4-473.9,67.4c-236.9,0-236.9-67.4-473.9-67.4
					c-236.9,0-236.9,67.4-473.9,67.4c-236.9,0-236.9-67.4-473.9-67.4c-236.9,0-236.9,67.4-473.9,67.4
					c-236.9,0-236.9-67.4-473.9-67.4C237,1049,237,1116.4,0,1116.4"/>
			</g>
			<g>
				<path class="st1" d="M7582.2,1158.5c-236.9,0-236.9-67.4-473.9-67.4c-236.9,0-236.9,67.4-473.9,67.4
					c-236.9,0-236.9-67.4-473.9-67.4c-236.9,0-236.9,67.4-473.9,67.4c-236.9,0-236.9-67.4-473.9-67.4
					c-236.9,0-236.9,67.4-473.9,67.4c-236.9,0-236.9-67.4-473.9-67.4c-236.9,0-236.9,67.4-473.9,67.4
					c-236.9,0-236.9-67.4-473.9-67.4c-236.9,0-236.9,67.4-473.9,67.4c-236.9,0-236.9-67.4-473.9-67.4
					c-236.9,0-236.9,67.4-473.9,67.4c-236.9,0-236.9-67.4-473.9-67.4c-236.9,0-236.9,67.4-473.9,67.4
					c-236.9,0-236.9-67.4-473.9-67.4c-236.9,0-236.9,67.4-473.9,67.4"/>
			</g>
			<g>
				<path class="st1" d="M7582.2,1200.6c-236.9,0-236.9-67.4-473.9-67.4c-236.9,0-236.9,67.4-473.9,67.4
					c-236.9,0-236.9-67.4-473.9-67.4c-236.9,0-236.9,67.4-473.9,67.4c-236.9,0-236.9-67.4-473.9-67.4
					c-236.9,0-236.9,67.4-473.9,67.4c-236.9,0-236.9-67.4-473.9-67.4c-236.9,0-236.9,67.4-473.9,67.4
					c-236.9,0-236.9-67.4-473.9-67.4c-236.9,0-236.9,67.4-473.9,67.4c-236.9,0-236.9-67.4-473.9-67.4
					c-236.9,0-236.9,67.4-473.9,67.4c-236.9,0-236.9-67.4-473.9-67.4c-236.9,0-236.9,67.4-473.9,67.4
					c-236.9,0-236.9-67.4-473.9-67.4c-236.9,0-236.9,67.4-473.9,67.4"/>
			</g>
			<g>
				<path class="st1" d="M7582.2,1242.7c-236.9,0-236.9-67.4-473.9-67.4c-236.9,0-236.9,67.4-473.9,67.4
					c-236.9,0-236.9-67.4-473.9-67.4c-236.9,0-236.9,67.4-473.9,67.4c-236.9,0-236.9-67.4-473.9-67.4
					c-236.9,0-236.9,67.4-473.9,67.4s-236.9-67.4-473.9-67.4c-236.9,0-236.9,67.4-473.9,67.4s-236.9-67.4-473.9-67.4
					c-236.9,0-236.9,67.4-473.9,67.4s-236.9-67.4-473.9-67.4c-236.9,0-236.9,67.4-473.9,67.4s-236.9-67.4-473.9-67.4
					c-236.9,0-236.9,67.4-473.9,67.4c-236.9,0-236.9-67.4-473.9-67.4c-236.9,0-236.9,67.4-473.9,67.4"/>
			</g>
			<g>
				<path class="st1" d="M7582.2,1284.9c-236.9,0-236.9-67.4-473.9-67.4c-236.9,0-236.9,67.4-473.9,67.4
					c-236.9,0-236.9-67.4-473.9-67.4c-236.9,0-236.9,67.4-473.9,67.4s-236.9-67.4-473.9-67.4c-236.9,0-236.9,67.4-473.9,67.4
					c-236.9,0-236.9-67.4-473.9-67.4c-236.9,0-236.9,67.4-473.9,67.4s-236.9-67.4-473.9-67.4c-236.9,0-236.9,67.4-473.9,67.4
					c-236.9,0-236.9-67.4-473.9-67.4c-236.9,0-236.9,67.4-473.9,67.4c-236.9,0-236.9-67.4-473.9-67.4
					c-236.9,0-236.9,67.4-473.9,67.4c-236.9,0-236.9-67.4-473.9-67.4c-236.9,0-236.9,67.4-473.9,67.4"/>
			</g>
			<g>
				<path class="st1" d="M7582.2,1327c-236.9,0-236.9-67.4-473.9-67.4c-236.9,0-236.9,67.4-473.9,67.4
					c-236.9,0-236.9-67.4-473.9-67.4c-236.9,0-236.9,67.4-473.9,67.4c-236.9,0-236.9-67.4-473.9-67.4
					c-236.9,0-236.9,67.4-473.9,67.4s-236.9-67.4-473.9-67.4c-236.9,0-236.9,67.4-473.9,67.4c-236.9,0-236.9-67.4-473.9-67.4
					c-236.9,0-236.9,67.4-473.9,67.4c-236.9,0-236.9-67.4-473.9-67.4c-236.9,0-236.9,67.4-473.9,67.4s-236.9-67.4-473.9-67.4
					c-236.9,0-236.9,67.4-473.9,67.4c-236.9,0-236.9-67.4-473.9-67.4C237,1259.6,237,1327,0,1327"/>
			</g>
			<g>
				<path class="st1" d="M7582.2,1369.1c-236.9,0-236.9-67.4-473.9-67.4c-236.9,0-236.9,67.4-473.9,67.4s-236.9-67.4-473.9-67.4
					c-236.9,0-236.9,67.4-473.9,67.4c-236.9,0-236.9-67.4-473.9-67.4c-236.9,0-236.9,67.4-473.9,67.4s-236.9-67.4-473.9-67.4
					c-236.9,0-236.9,67.4-473.9,67.4c-236.9,0-236.9-67.4-473.9-67.4c-236.9,0-236.9,67.4-473.9,67.4s-236.9-67.4-473.9-67.4
					c-236.9,0-236.9,67.4-473.9,67.4c-236.9,0-236.9-67.4-473.9-67.4c-236.9,0-236.9,67.4-473.9,67.4
					c-236.9,0-236.9-67.4-473.9-67.4c-236.9,0-236.9,67.4-473.9,67.4"/>
			</g>
			<g>
				<path class="st1" d="M7582.2,1411.2c-236.9,0-236.9-67.4-473.9-67.4c-236.9,0-236.9,67.4-473.9,67.4
					c-236.9,0-236.9-67.4-473.9-67.4c-236.9,0-236.9,67.4-473.9,67.4s-236.9-67.4-473.9-67.4c-236.9,0-236.9,67.4-473.9,67.4
					c-236.9,0-236.9-67.4-473.9-67.4c-236.9,0-236.9,67.4-473.9,67.4c-236.9,0-236.9-67.4-473.9-67.4
					c-236.9,0-236.9,67.4-473.9,67.4s-236.9-67.4-473.9-67.4c-236.9,0-236.9,67.4-473.9,67.4s-236.9-67.4-473.9-67.4
					c-236.9,0-236.9,67.4-473.9,67.4c-236.9,0-236.9-67.4-473.9-67.4c-236.9,0-236.9,67.4-473.9,67.4"/>
			</g>
			<g>
				<path class="st1" d="M7582.2,1453.4c-236.9,0-236.9-67.4-473.9-67.4c-236.9,0-236.9,67.4-473.9,67.4
					c-236.9,0-236.9-67.4-473.9-67.4c-236.9,0-236.9,67.4-473.9,67.4c-236.9,0-236.9-67.4-473.9-67.4
					c-236.9,0-236.9,67.4-473.9,67.4S4502,1386,4265,1386c-236.9,0-236.9,67.4-473.9,67.4s-236.9-67.4-473.9-67.4
					c-236.9,0-236.9,67.4-473.9,67.4c-236.9,0-236.9-67.4-473.9-67.4c-236.9,0-236.9,67.4-473.9,67.4
					c-236.9,0-236.9-67.4-473.9-67.4c-236.9,0-236.9,67.4-473.9,67.4c-236.9,0-236.9-67.4-473.9-67.4C237,1386,237,1453.4,0,1453.4"
					/>
			</g>
			<g>
				<path class="st1" d="M7582.2,1495.5c-236.9,0-236.9-67.4-473.9-67.4c-236.9,0-236.9,67.4-473.9,67.4s-236.9-67.4-473.9-67.4
					c-236.9,0-236.9,67.4-473.9,67.4s-236.9-67.4-473.9-67.4c-236.9,0-236.9,67.4-473.9,67.4s-236.9-67.4-473.9-67.4
					c-236.9,0-236.9,67.4-473.9,67.4c-236.9,0-236.9-67.4-473.9-67.4c-236.9,0-236.9,67.4-473.9,67.4
					c-236.9,0-236.9-67.4-473.9-67.4c-236.9,0-236.9,67.4-473.9,67.4s-236.9-67.4-473.9-67.4c-236.9,0-236.9,67.4-473.9,67.4
					c-236.9,0-236.9-67.4-473.9-67.4c-236.9,0-236.9,67.4-473.9,67.4"/>
			</g>
			<g>
				<path class="st1" d="M7582.2,1537.6c-236.9,0-236.9-67.4-473.9-67.4c-236.9,0-236.9,67.4-473.9,67.4
					c-236.9,0-236.9-67.4-473.9-67.4c-236.9,0-236.9,67.4-473.9,67.4c-236.9,0-236.9-67.4-473.9-67.4
					c-236.9,0-236.9,67.4-473.9,67.4c-236.9,0-236.9-67.4-473.9-67.4c-236.9,0-236.9,67.4-473.9,67.4
					c-236.9,0-236.9-67.4-473.9-67.4c-236.9,0-236.9,67.4-473.9,67.4s-236.9-67.4-473.9-67.4c-236.9,0-236.9,67.4-473.9,67.4
					c-236.9,0-236.9-67.4-473.9-67.4c-236.9,0-236.9,67.4-473.9,67.4c-236.9,0-236.9-67.4-473.9-67.4
					c-236.9,0-236.9,67.4-473.9,67.4"/>
			</g>
			<g>
				<path class="st1" d="M7582.2,1579.7c-236.9,0-236.9-67.4-473.9-67.4c-236.9,0-236.9,67.4-473.9,67.4
					c-236.9,0-236.9-67.4-473.9-67.4c-236.9,0-236.9,67.4-473.9,67.4c-236.9,0-236.9-67.4-473.9-67.4
					c-236.9,0-236.9,67.4-473.9,67.4s-236.9-67.4-473.9-67.4c-236.9,0-236.9,67.4-473.9,67.4c-236.9,0-236.9-67.4-473.9-67.4
					c-236.9,0-236.9,67.4-473.9,67.4s-236.9-67.4-473.9-67.4c-236.9,0-236.9,67.4-473.9,67.4s-236.9-67.4-473.9-67.4
					c-236.9,0-236.9,67.4-473.9,67.4c-236.9,0-236.9-67.4-473.9-67.4c-236.9,0-236.9,67.4-473.9,67.4"/>
			</g>
			<g>
				<path class="st1" d="M7582.2,1621.8c-236.9,0-236.9-67.4-473.9-67.4c-236.9,0-236.9,67.4-473.9,67.4
					c-236.9,0-236.9-67.4-473.9-67.4c-236.9,0-236.9,67.4-473.9,67.4s-236.9-67.4-473.9-67.4c-236.9,0-236.9,67.4-473.9,67.4
					c-236.9,0-236.9-67.4-473.9-67.4c-236.9,0-236.9,67.4-473.9,67.4s-236.9-67.4-473.9-67.4c-236.9,0-236.9,67.4-473.9,67.4
					c-236.9,0-236.9-67.4-473.9-67.4c-236.9,0-236.9,67.4-473.9,67.4c-236.9,0-236.9-67.4-473.9-67.4
					c-236.9,0-236.9,67.4-473.9,67.4c-236.9,0-236.9-67.4-473.9-67.4c-236.9,0-236.9,67.4-473.9,67.4"/>
			</g>
			<g>
				<path class="st1" d="M7582.2,1664c-236.9,0-236.9-67.4-473.9-67.4c-236.9,0-236.9,67.4-473.9,67.4
					c-236.9,0-236.9-67.4-473.9-67.4c-236.9,0-236.9,67.4-473.9,67.4c-236.9,0-236.9-67.4-473.9-67.4
					c-236.9,0-236.9,67.4-473.9,67.4s-236.9-67.4-473.9-67.4c-236.9,0-236.9,67.4-473.9,67.4c-236.9,0-236.9-67.4-473.9-67.4
					c-236.9,0-236.9,67.4-473.9,67.4c-236.9,0-236.9-67.4-473.9-67.4c-236.9,0-236.9,67.4-473.9,67.4s-236.9-67.4-473.9-67.4
					c-236.9,0-236.9,67.4-473.9,67.4c-236.9,0-236.9-67.4-473.9-67.4C237,1596.6,237,1664,0,1664"/>
			</g>
			<g>
				<path class="st1" d="M7582.2,1706.1c-236.9,0-236.9-67.4-473.9-67.4c-236.9,0-236.9,67.4-473.9,67.4s-236.9-67.4-473.9-67.4
					c-236.9,0-236.9,67.4-473.9,67.4c-236.9,0-236.9-67.4-473.9-67.4c-236.9,0-236.9,67.4-473.9,67.4s-236.9-67.4-473.9-67.4
					c-236.9,0-236.9,67.4-473.9,67.4c-236.9,0-236.9-67.4-473.9-67.4c-236.9,0-236.9,67.4-473.9,67.4s-236.9-67.4-473.9-67.4
					c-236.9,0-236.9,67.4-473.9,67.4c-236.9,0-236.9-67.4-473.9-67.4c-236.9,0-236.9,67.4-473.9,67.4
					c-236.9,0-236.9-67.4-473.9-67.4c-236.9,0-236.9,67.4-473.9,67.4"/>
			</g>
			<g>
				<path class="st1" d="M7582.2,1748.2c-236.9,0-236.9-67.4-473.9-67.4c-236.9,0-236.9,67.4-473.9,67.4
					c-236.9,0-236.9-67.4-473.9-67.4c-236.9,0-236.9,67.4-473.9,67.4s-236.9-67.4-473.9-67.4c-236.9,0-236.9,67.4-473.9,67.4
					c-236.9,0-236.9-67.4-473.9-67.4c-236.9,0-236.9,67.4-473.9,67.4c-236.9,0-236.9-67.4-473.9-67.4
					c-236.9,0-236.9,67.4-473.9,67.4s-236.9-67.4-473.9-67.4c-236.9,0-236.9,67.4-473.9,67.4s-236.9-67.4-473.9-67.4
					c-236.9,0-236.9,67.4-473.9,67.4c-236.9,0-236.9-67.4-473.9-67.4c-236.9,0-236.9,67.4-473.9,67.4"/>
			</g>
			<g>
				<path class="st1" d="M7582.2,1790.3c-236.9,0-236.9-67.4-473.9-67.4c-236.9,0-236.9,67.4-473.9,67.4
					c-236.9,0-236.9-67.4-473.9-67.4c-236.9,0-236.9,67.4-473.9,67.4c-236.9,0-236.9-67.4-473.9-67.4
					c-236.9,0-236.9,67.4-473.9,67.4s-236.9-67.4-473.9-67.4c-236.9,0-236.9,67.4-473.9,67.4s-236.9-67.4-473.9-67.4
					c-236.9,0-236.9,67.4-473.9,67.4c-236.9,0-236.9-67.4-473.9-67.4c-236.9,0-236.9,67.4-473.9,67.4
					c-236.9,0-236.9-67.4-473.9-67.4c-236.9,0-236.9,67.4-473.9,67.4c-236.9,0-236.9-67.4-473.9-67.4
					c-236.9,0-236.9,67.4-473.9,67.4"/>
			</g>
			<g>
				<path class="st1" d="M7582.2,1832.5c-236.9,0-236.9-67.4-473.9-67.4c-236.9,0-236.9,67.4-473.9,67.4s-236.9-67.4-473.9-67.4
					c-236.9,0-236.9,67.4-473.9,67.4s-236.9-67.4-473.9-67.4c-236.9,0-236.9,67.4-473.9,67.4s-236.9-67.4-473.9-67.4
					c-236.9,0-236.9,67.4-473.9,67.4c-236.9,0-236.9-67.4-473.9-67.4c-236.9,0-236.9,67.4-473.9,67.4
					c-236.9,0-236.9-67.4-473.9-67.4c-236.9,0-236.9,67.4-473.9,67.4s-236.9-67.4-473.9-67.4c-236.9,0-236.9,67.4-473.9,67.4
					c-236.9,0-236.9-67.4-473.9-67.4c-236.9,0-236.9,67.4-473.9,67.4"/>
			</g>
			<g>
				<path class="st1" d="M7582.2,1874.6c-236.9,0-236.9-67.4-473.9-67.4c-236.9,0-236.9,67.4-473.9,67.4
					c-236.9,0-236.9-67.4-473.9-67.4c-236.9,0-236.9,67.4-473.9,67.4c-236.9,0-236.9-67.4-473.9-67.4
					c-236.9,0-236.9,67.4-473.9,67.4c-236.9,0-236.9-67.4-473.9-67.4c-236.9,0-236.9,67.4-473.9,67.4
					c-236.9,0-236.9-67.4-473.9-67.4c-236.9,0-236.9,67.4-473.9,67.4s-236.9-67.4-473.9-67.4c-236.9,0-236.9,67.4-473.9,67.4
					c-236.9,0-236.9-67.4-473.9-67.4c-236.9,0-236.9,67.4-473.9,67.4c-236.9,0-236.9-67.4-473.9-67.4
					c-236.9,0-236.9,67.4-473.9,67.4"/>
			</g>
			<g>
				<path class="st1" d="M7582.2,1916.7c-236.9,0-236.9-67.4-473.9-67.4c-236.9,0-236.9,67.4-473.9,67.4
					c-236.9,0-236.9-67.4-473.9-67.4c-236.9,0-236.9,67.4-473.9,67.4c-236.9,0-236.9-67.4-473.9-67.4
					c-236.9,0-236.9,67.4-473.9,67.4s-236.9-67.4-473.9-67.4c-236.9,0-236.9,67.4-473.9,67.4c-236.9,0-236.9-67.4-473.9-67.4
					c-236.9,0-236.9,67.4-473.9,67.4s-236.9-67.4-473.9-67.4c-236.9,0-236.9,67.4-473.9,67.4s-236.9-67.4-473.9-67.4
					c-236.9,0-236.9,67.4-473.9,67.4c-236.9,0-236.9-67.4-473.9-67.4c-236.9,0-236.9,67.4-473.9,67.4"/>
			</g>
			<g>
				<path class="st1" d="M7582.2,1958.8c-236.9,0-236.9-67.4-473.9-67.4c-236.9,0-236.9,67.4-473.9,67.4
					c-236.9,0-236.9-67.4-473.9-67.4c-236.9,0-236.9,67.4-473.9,67.4s-236.9-67.4-473.9-67.4c-236.9,0-236.9,67.4-473.9,67.4
					c-236.9,0-236.9-67.4-473.9-67.4c-236.9,0-236.9,67.4-473.9,67.4s-236.9-67.4-473.9-67.4c-236.9,0-236.9,67.4-473.9,67.4
					c-236.9,0-236.9-67.4-473.9-67.4c-236.9,0-236.9,67.4-473.9,67.4c-236.9,0-236.9-67.4-473.9-67.4
					c-236.9,0-236.9,67.4-473.9,67.4c-236.9,0-236.9-67.4-473.9-67.4c-236.9,0-236.9,67.4-473.9,67.4"/>
			</g>
			<g>
				<path class="st1" d="M7582.2,2000.9c-236.9,0-236.9-67.4-473.9-67.4c-236.9,0-236.9,67.4-473.9,67.4
					c-236.9,0-236.9-67.4-473.9-67.4c-236.9,0-236.9,67.4-473.9,67.4c-236.9,0-236.9-67.4-473.9-67.4
					c-236.9,0-236.9,67.4-473.9,67.4s-236.9-67.4-473.9-67.4c-236.9,0-236.9,67.4-473.9,67.4c-236.9,0-236.9-67.4-473.9-67.4
					c-236.9,0-236.9,67.4-473.9,67.4c-236.9,0-236.9-67.4-473.9-67.4c-236.9,0-236.9,67.4-473.9,67.4
					c-236.9,0-236.9-67.4-473.9-67.4c-236.9,0-236.9,67.4-473.9,67.4c-236.9,0-236.9-67.4-473.9-67.4
					c-236.9,0-236.9,67.4-473.9,67.4"/>
			</g>
			<g>
				<path class="st1" d="M7582.2,2043.1c-236.9,0-236.9-67.4-473.9-67.4c-236.9,0-236.9,67.4-473.9,67.4s-236.9-67.4-473.9-67.4
					c-236.9,0-236.9,67.4-473.9,67.4s-236.9-67.4-473.9-67.4c-236.9,0-236.9,67.4-473.9,67.4s-236.9-67.4-473.9-67.4
					c-236.9,0-236.9,67.4-473.9,67.4c-236.9,0-236.9-67.4-473.9-67.4c-236.9,0-236.9,67.4-473.9,67.4s-236.9-67.4-473.9-67.4
					c-236.9,0-236.9,67.4-473.9,67.4s-236.9-67.4-473.9-67.4c-236.9,0-236.9,67.4-473.9,67.4c-236.9,0-236.9-67.4-473.9-67.4
					c-236.9,0-236.9,67.4-473.9,67.4"/>
			</g>
			<g>
				<path class="st1" d="M7582.2,2085.2c-236.9,0-236.9-67.4-473.9-67.4c-236.9,0-236.9,67.4-473.9,67.4
					c-236.9,0-236.9-67.4-473.9-67.4c-236.9,0-236.9,67.4-473.9,67.4c-236.9,0-236.9-67.4-473.9-67.4
					c-236.9,0-236.9,67.4-473.9,67.4c-236.9,0-236.9-67.4-473.9-67.4c-236.9,0-236.9,67.4-473.9,67.4
					c-236.9,0-236.9-67.4-473.9-67.4c-236.9,0-236.9,67.4-473.9,67.4s-236.9-67.4-473.9-67.4c-236.9,0-236.9,67.4-473.9,67.4
					c-236.9,0-236.9-67.4-473.9-67.4c-236.9,0-236.9,67.4-473.9,67.4c-236.9,0-236.9-67.4-473.9-67.4
					c-236.9,0-236.9,67.4-473.9,67.4"/>
			</g>
			<g>
				<path class="st1" d="M7582.2,2127.3c-236.9,0-236.9-67.4-473.9-67.4c-236.9,0-236.9,67.4-473.9,67.4
					c-236.9,0-236.9-67.4-473.9-67.4c-236.9,0-236.9,67.4-473.9,67.4c-236.9,0-236.9-67.4-473.9-67.4s-236.9,67.4-473.9,67.4
					s-236.9-67.4-473.9-67.4c-236.9,0-236.9,67.4-473.9,67.4s-236.9-67.4-473.9-67.4c-236.9,0-236.9,67.4-473.9,67.4
					c-236.9,0-236.9-67.4-473.9-67.4c-236.9,0-236.9,67.4-473.9,67.4c-236.9,0-236.9-67.4-473.9-67.4s-236.9,67.4-473.9,67.4
					c-236.9,0-236.9-67.4-473.9-67.4S237,2127.3,0.1,2127.3"/>
			</g>
			<g>
				<path class="st1" d="M7582.2,2169.4c-236.9,0-236.9-67.4-473.9-67.4c-236.9,0-236.9,67.4-473.9,67.4
					c-236.9,0-236.9-67.4-473.9-67.4c-236.9,0-236.9,67.4-473.9,67.4s-236.9-67.4-473.9-67.4s-236.9,67.4-473.9,67.4
					c-236.9,0-236.9-67.4-473.9-67.4c-236.9,0-236.9,67.4-473.9,67.4c-236.9,0-236.9-67.4-473.9-67.4
					c-236.9,0-236.9,67.4-473.9,67.4c-236.9,0-236.9-67.4-473.9-67.4c-236.9,0-236.9,67.4-473.9,67.4
					c-236.9,0-236.9-67.4-473.9-67.4s-236.9,67.4-473.9,67.4c-236.9,0-236.9-67.4-473.9-67.4S237,2169.4,0.1,2169.4"/>
			</g>
			<g>
				<path class="st1" d="M7582.2,2211.6c-236.9,0-236.9-67.4-473.9-67.4c-236.9,0-236.9,67.4-473.9,67.4
					c-236.9,0-236.9-67.4-473.9-67.4c-236.9,0-236.9,67.4-473.9,67.4c-236.9,0-236.9-67.4-473.9-67.4s-236.9,67.4-473.9,67.4
					s-236.9-67.4-473.9-67.4c-236.9,0-236.9,67.4-473.9,67.4c-236.9,0-236.9-67.4-473.9-67.4c-236.9,0-236.9,67.4-473.9,67.4
					c-236.9,0-236.9-67.4-473.9-67.4c-236.9,0-236.9,67.4-473.9,67.4s-236.9-67.4-473.9-67.4s-236.9,67.4-473.9,67.4
					c-236.9,0-236.9-67.4-473.9-67.4S237,2211.6,0.1,2211.6"/>
			</g>
			<g>
				<path class="st1" d="M7582.2,2253.7c-236.9,0-236.9-67.4-473.9-67.4c-236.9,0-236.9,67.4-473.9,67.4
					c-236.9,0-236.9-67.4-473.9-67.4c-236.9,0-236.9,67.4-473.9,67.4c-236.9,0-236.9-67.4-473.9-67.4s-236.9,67.4-473.9,67.4
					s-236.9-67.4-473.9-67.4c-236.9,0-236.9,67.4-473.9,67.4c-236.9,0-236.9-67.4-473.9-67.4c-236.9,0-236.9,67.4-473.9,67.4
					s-236.9-67.4-473.9-67.4c-236.9,0-236.9,67.4-473.9,67.4c-236.9,0-236.9-67.4-473.9-67.4s-236.9,67.4-473.9,67.4
					c-236.9,0-236.9-67.4-473.9-67.4S237,2253.7,0.1,2253.7"/>
			</g>
			<g>
				<path class="st1" d="M7582.2,2295.8c-236.9,0-236.9-67.4-473.9-67.4c-236.9,0-236.9,67.4-473.9,67.4
					c-236.9,0-236.9-67.4-473.9-67.4c-236.9,0-236.9,67.4-473.9,67.4s-236.9-67.4-473.9-67.4c-236.9,0-236.9,67.4-473.9,67.4
					c-236.9,0-236.9-67.4-473.9-67.4c-236.9,0-236.9,67.4-473.9,67.4s-236.9-67.4-473.9-67.4c-236.9,0-236.9,67.4-473.9,67.4
					s-236.9-67.4-473.9-67.4c-236.9,0-236.9,67.4-473.9,67.4c-236.9,0-236.9-67.4-473.9-67.4s-236.9,67.4-473.9,67.4
					c-236.9,0-236.9-67.4-473.9-67.4S237,2295.8,0.1,2295.8"/>
			</g>
			<g>
				<path class="st1" d="M7582.2,2337.9c-236.9,0-236.9-67.4-473.9-67.4c-236.9,0-236.9,67.4-473.9,67.4
					c-236.9,0-236.9-67.4-473.9-67.4c-236.9,0-236.9,67.4-473.9,67.4c-236.9,0-236.9-67.4-473.9-67.4s-236.9,67.4-473.9,67.4
					s-236.9-67.4-473.9-67.4c-236.9,0-236.9,67.4-473.9,67.4s-236.9-67.4-473.9-67.4c-236.9,0-236.9,67.4-473.9,67.4
					c-236.9,0-236.9-67.4-473.9-67.4c-236.9,0-236.9,67.4-473.9,67.4c-236.9,0-236.9-67.4-473.9-67.4s-236.9,67.4-473.9,67.4
					c-236.9,0-236.9-67.4-473.9-67.4S237,2337.9,0.1,2337.9"/>
			</g>
			<g>
				<path class="st1" d="M7582.2,2380c-236.9,0-236.9-67.4-473.9-67.4c-236.9,0-236.9,67.4-473.9,67.4s-236.9-67.4-473.9-67.4
					c-236.9,0-236.9,67.4-473.9,67.4s-236.9-67.4-473.9-67.4s-236.9,67.4-473.9,67.4s-236.9-67.4-473.9-67.4
					c-236.9,0-236.9,67.4-473.9,67.4c-236.9,0-236.9-67.4-473.9-67.4c-236.9,0-236.9,67.4-473.9,67.4
					c-236.9,0-236.9-67.4-473.9-67.4c-236.9,0-236.9,67.4-473.9,67.4s-236.9-67.4-473.9-67.4s-236.9,67.4-473.9,67.4
					c-236.9,0-236.9-67.4-473.9-67.4S237,2380,0.1,2380"/>
			</g>
			<g>
				<path class="st1" d="M7582.2,2422.2c-236.9,0-236.9-67.4-473.9-67.4c-236.9,0-236.9,67.4-473.9,67.4
					c-236.9,0-236.9-67.4-473.9-67.4c-236.9,0-236.9,67.4-473.9,67.4c-236.9,0-236.9-67.4-473.9-67.4s-236.9,67.4-473.9,67.4
					c-236.9,0-236.9-67.4-473.9-67.4c-236.9,0-236.9,67.4-473.9,67.4c-236.9,0-236.9-67.4-473.9-67.4
					c-236.9,0-236.9,67.4-473.9,67.4s-236.9-67.4-473.9-67.4c-236.9,0-236.9,67.4-473.9,67.4c-236.9,0-236.9-67.4-473.9-67.4
					s-236.9,67.4-473.9,67.4c-236.9,0-236.9-67.4-473.9-67.4S237,2422.2,0.1,2422.2"/>
			</g>
			<g>
				<path class="st1" d="M7582.2,2464.3c-236.9,0-236.9-67.4-473.9-67.4c-236.9,0-236.9,67.4-473.9,67.4
					c-236.9,0-236.9-67.4-473.9-67.4c-236.9,0-236.9,67.4-473.9,67.4c-236.9,0-236.9-67.4-473.9-67.4s-236.9,67.4-473.9,67.4
					s-236.9-67.4-473.9-67.4c-236.9,0-236.9,67.4-473.9,67.4s-236.9-67.4-473.9-67.4c-236.9,0-236.9,67.4-473.9,67.4
					s-236.9-67.4-473.9-67.4c-236.9,0-236.9,67.4-473.9,67.4s-236.9-67.4-473.9-67.4s-236.9,67.4-473.9,67.4
					c-236.9,0-236.9-67.4-473.9-67.4S237,2464.3,0.1,2464.3"/>
			</g>
			<g>
				<path class="st1" d="M7582.2,2506.4c-236.9,0-236.9-67.4-473.9-67.4c-236.9,0-236.9,67.4-473.9,67.4
					c-236.9,0-236.9-67.4-473.9-67.4c-236.9,0-236.9,67.4-473.9,67.4s-236.9-67.4-473.9-67.4s-236.9,67.4-473.9,67.4
					c-236.9,0-236.9-67.4-473.9-67.4c-236.9,0-236.9,67.4-473.9,67.4s-236.9-67.4-473.9-67.4c-236.9,0-236.9,67.4-473.9,67.4
					c-236.9,0-236.9-67.4-473.9-67.4c-236.9,0-236.9,67.4-473.9,67.4c-236.9,0-236.9-67.4-473.9-67.4s-236.9,67.4-473.9,67.4
					c-236.9,0-236.9-67.4-473.9-67.4S237,2506.4,0.1,2506.4"/>
			</g>
			<g>
				<path class="st1" d="M7582.2,2548.5c-236.9,0-236.9-67.4-473.9-67.4c-236.9,0-236.9,67.4-473.9,67.4
					c-236.9,0-236.9-67.4-473.9-67.4c-236.9,0-236.9,67.4-473.9,67.4c-236.9,0-236.9-67.4-473.9-67.4s-236.9,67.4-473.9,67.4
					s-236.9-67.4-473.9-67.4c-236.9,0-236.9,67.4-473.9,67.4c-236.9,0-236.9-67.4-473.9-67.4c-236.9,0-236.9,67.4-473.9,67.4
					c-236.9,0-236.9-67.4-473.9-67.4c-236.9,0-236.9,67.4-473.9,67.4s-236.9-67.4-473.9-67.4s-236.9,67.4-473.9,67.4
					c-236.9,0-236.9-67.4-473.9-67.4S237,2548.5,0.1,2548.5"/>
			</g>
			<g>
				<path class="st1" d="M7582.2,2590.7c-236.9,0-236.9-67.4-473.9-67.4c-236.9,0-236.9,67.4-473.9,67.4s-236.9-67.4-473.9-67.4
					c-236.9,0-236.9,67.4-473.9,67.4c-236.9,0-236.9-67.4-473.9-67.4s-236.9,67.4-473.9,67.4s-236.9-67.4-473.9-67.4
					c-236.9,0-236.9,67.4-473.9,67.4c-236.9,0-236.9-67.4-473.9-67.4c-236.9,0-236.9,67.4-473.9,67.4s-236.9-67.4-473.9-67.4
					c-236.9,0-236.9,67.4-473.9,67.4c-236.9,0-236.9-67.4-473.9-67.4s-236.9,67.4-473.9,67.4c-236.9,0-236.9-67.4-473.9-67.4
					S237,2590.7,0.1,2590.7"/>
			</g>
			<g>
				<path class="st1" d="M7582.2,2632.8c-236.9,0-236.9-67.4-473.9-67.4c-236.9,0-236.9,67.4-473.9,67.4
					c-236.9,0-236.9-67.4-473.9-67.4c-236.9,0-236.9,67.4-473.9,67.4s-236.9-67.4-473.9-67.4c-236.9,0-236.9,67.4-473.9,67.4
					c-236.9,0-236.9-67.4-473.9-67.4c-236.9,0-236.9,67.4-473.9,67.4c-236.9,0-236.9-67.4-473.9-67.4
					c-236.9,0-236.9,67.4-473.9,67.4s-236.9-67.4-473.9-67.4c-236.9,0-236.9,67.4-473.9,67.4s-236.9-67.4-473.9-67.4
					s-236.9,67.4-473.9,67.4c-236.9,0-236.9-67.4-473.9-67.4S237,2632.8,0.1,2632.8"/>
			</g>
			<g>
				<path class="st1" d="M7582.2,2674.9c-236.9,0-236.9-67.4-473.9-67.4c-236.9,0-236.9,67.4-473.9,67.4
					c-236.9,0-236.9-67.4-473.9-67.4c-236.9,0-236.9,67.4-473.9,67.4c-236.9,0-236.9-67.4-473.9-67.4s-236.9,67.4-473.9,67.4
					s-236.9-67.4-473.9-67.4c-236.9,0-236.9,67.4-473.9,67.4s-236.9-67.4-473.9-67.4c-236.9,0-236.9,67.4-473.9,67.4
					c-236.9,0-236.9-67.4-473.9-67.4c-236.9,0-236.9,67.4-473.9,67.4c-236.9,0-236.9-67.4-473.9-67.4s-236.9,67.4-473.9,67.4
					c-236.9,0-236.9-67.4-473.9-67.4S237,2674.9,0.1,2674.9"/>
			</g>
			<g>
				<path class="st1" d="M7582.2,2717c-236.9,0-236.9-67.4-473.9-67.4c-236.9,0-236.9,67.4-473.9,67.4s-236.9-67.4-473.9-67.4
					c-236.9,0-236.9,67.4-473.9,67.4s-236.9-67.4-473.9-67.4s-236.9,67.4-473.9,67.4s-236.9-67.4-473.9-67.4
					c-236.9,0-236.9,67.4-473.9,67.4c-236.9,0-236.9-67.4-473.9-67.4c-236.9,0-236.9,67.4-473.9,67.4
					c-236.9,0-236.9-67.4-473.9-67.4c-236.9,0-236.9,67.4-473.9,67.4s-236.9-67.4-473.9-67.4s-236.9,67.4-473.9,67.4
					c-236.9,0-236.9-67.4-473.9-67.4S237,2717,0.1,2717"/>
			</g>
			<g>
				<path class="st1" d="M7582.2,2759.1c-236.9,0-236.9-67.4-473.9-67.4c-236.9,0-236.9,67.4-473.9,67.4
					c-236.9,0-236.9-67.4-473.9-67.4c-236.9,0-236.9,67.4-473.9,67.4c-236.9,0-236.9-67.4-473.9-67.4s-236.9,67.4-473.9,67.4
					c-236.9,0-236.9-67.4-473.9-67.4c-236.9,0-236.9,67.4-473.9,67.4c-236.9,0-236.9-67.4-473.9-67.4
					c-236.9,0-236.9,67.4-473.9,67.4s-236.9-67.4-473.9-67.4c-236.9,0-236.9,67.4-473.9,67.4c-236.9,0-236.9-67.4-473.9-67.4
					s-236.9,67.4-473.9,67.4c-236.9,0-236.9-67.4-473.9-67.4S237,2759.1,0.1,2759.1"/>
			</g>
			<g>
				<path class="st1" d="M7582.2,2801.3c-236.9,0-236.9-67.4-473.9-67.4c-236.9,0-236.9,67.4-473.9,67.4
					c-236.9,0-236.9-67.4-473.9-67.4c-236.9,0-236.9,67.4-473.9,67.4c-236.9,0-236.9-67.4-473.9-67.4s-236.9,67.4-473.9,67.4
					s-236.9-67.4-473.9-67.4c-236.9,0-236.9,67.4-473.9,67.4c-236.9,0-236.9-67.4-473.9-67.4c-236.9,0-236.9,67.4-473.9,67.4
					s-236.9-67.4-473.9-67.4c-236.9,0-236.9,67.4-473.9,67.4s-236.9-67.4-473.9-67.4s-236.9,67.4-473.9,67.4
					c-236.9,0-236.9-67.4-473.9-67.4S237,2801.3,0.1,2801.3"/>
			</g>
			<g>
				<path class="st1" d="M7582.2,2843.4c-236.9,0-236.9-67.4-473.9-67.4c-236.9,0-236.9,67.4-473.9,67.4
					c-236.9,0-236.9-67.4-473.9-67.4c-236.9,0-236.9,67.4-473.9,67.4s-236.9-67.4-473.9-67.4s-236.9,67.4-473.9,67.4
					c-236.9,0-236.9-67.4-473.9-67.4c-236.9,0-236.9,67.4-473.9,67.4s-236.9-67.4-473.9-67.4c-236.9,0-236.9,67.4-473.9,67.4
					c-236.9,0-236.9-67.4-473.9-67.4c-236.9,0-236.9,67.4-473.9,67.4c-236.9,0-236.9-67.4-473.9-67.4s-236.9,67.4-473.9,67.4
					c-236.9,0-236.9-67.4-473.9-67.4S237,2843.4,0.1,2843.4"/>
			</g>
			<g>
				<path class="st1" d="M7582.2,2885.5c-236.9,0-236.9-67.4-473.9-67.4c-236.9,0-236.9,67.4-473.9,67.4
					c-236.9,0-236.9-67.4-473.9-67.4c-236.9,0-236.9,67.4-473.9,67.4c-236.9,0-236.9-67.4-473.9-67.4s-236.9,67.4-473.9,67.4
					s-236.9-67.4-473.9-67.4c-236.9,0-236.9,67.4-473.9,67.4c-236.9,0-236.9-67.4-473.9-67.4c-236.9,0-236.9,67.4-473.9,67.4
					c-236.9,0-236.9-67.4-473.9-67.4c-236.9,0-236.9,67.4-473.9,67.4s-236.9-67.4-473.9-67.4s-236.9,67.4-473.9,67.4
					c-236.9,0-236.9-67.4-473.9-67.4S237,2885.5,0.1,2885.5"/>
			</g>
			<g>
				<path class="st1" d="M7582.2,2927.6c-236.9,0-236.9-67.4-473.9-67.4c-236.9,0-236.9,67.4-473.9,67.4s-236.9-67.4-473.9-67.4
					c-236.9,0-236.9,67.4-473.9,67.4c-236.9,0-236.9-67.4-473.9-67.4s-236.9,67.4-473.9,67.4s-236.9-67.4-473.9-67.4
					c-236.9,0-236.9,67.4-473.9,67.4c-236.9,0-236.9-67.4-473.9-67.4c-236.9,0-236.9,67.4-473.9,67.4s-236.9-67.4-473.9-67.4
					c-236.9,0-236.9,67.4-473.9,67.4c-236.9,0-236.9-67.4-473.9-67.4s-236.9,67.4-473.9,67.4c-236.9,0-236.9-67.4-473.9-67.4
					S237,2927.6,0.1,2927.6"/>
			</g>
			<g>
				<path class="st1" d="M7582.3,2969.8c-236.9,0-236.9-67.4-473.9-67.4c-236.9,0-236.9,67.4-473.9,67.4
					c-236.9,0-236.9-67.4-473.9-67.4c-236.9,0-236.9,67.4-473.9,67.4c-236.9,0-236.9-67.4-473.9-67.4
					c-236.9,0-236.9,67.4-473.9,67.4c-236.9,0-236.9-67.4-473.9-67.4c-236.9,0-236.9,67.4-473.9,67.4
					c-236.9,0-236.9-67.4-473.9-67.4c-236.9,0-236.9,67.4-473.9,67.4s-236.9-67.4-473.9-67.4c-236.9,0-236.9,67.4-473.9,67.4
					s-236.9-67.4-473.9-67.4s-236.9,67.4-473.9,67.4c-236.9,0-236.9-67.4-473.9-67.4S237,2969.8,0.1,2969.8"/>
			</g>
			<g>
				<path class="st1" d="M7582.3,3011.9c-236.9,0-236.9-67.4-473.9-67.4c-236.9,0-236.9,67.4-473.9,67.4
					c-236.9,0-236.9-67.4-473.9-67.4c-236.9,0-236.9,67.4-473.9,67.4c-236.9,0-236.9-67.4-473.9-67.4s-236.9,67.4-473.9,67.4
					s-236.9-67.4-473.9-67.4c-236.9,0-236.9,67.4-473.9,67.4s-236.9-67.4-473.9-67.4c-236.9,0-236.9,67.4-473.9,67.4
					c-236.9,0-236.9-67.4-473.9-67.4c-236.9,0-236.9,67.4-473.9,67.4c-236.9,0-236.9-67.4-473.9-67.4s-236.9,67.4-473.9,67.4
					c-236.9,0-236.9-67.4-473.9-67.4S237,3011.9,0.1,3011.9"/>
			</g>
			<g>
				<path class="st1" d="M7582.3,3054c-236.9,0-236.9-67.4-473.9-67.4c-236.9,0-236.9,67.4-473.9,67.4s-236.9-67.4-473.9-67.4
					c-236.9,0-236.9,67.4-473.9,67.4s-236.9-67.4-473.9-67.4S4975.9,3054,4739,3054s-236.9-67.4-473.9-67.4
					c-236.9,0-236.9,67.4-473.9,67.4c-236.9,0-236.9-67.4-473.9-67.4c-236.9,0-236.9,67.4-473.9,67.4
					c-236.9,0-236.9-67.4-473.9-67.4c-236.9,0-236.9,67.4-473.9,67.4s-236.9-67.4-473.9-67.4s-236.9,67.4-473.9,67.4
					c-236.9,0-236.9-67.4-473.9-67.4S237,3054,0.1,3054"/>
			</g>
			<g>
				<path class="st1" d="M7582.3,3096.1c-236.9,0-236.9-67.4-473.9-67.4c-236.9,0-236.9,67.4-473.9,67.4
					c-236.9,0-236.9-67.4-473.9-67.4c-236.9,0-236.9,67.4-473.9,67.4c-236.9,0-236.9-67.4-473.9-67.4s-236.9,67.4-473.9,67.4
					s-236.9-67.4-473.9-67.4c-236.9,0-236.9,67.4-473.9,67.4c-236.9,0-236.9-67.4-473.9-67.4c-236.9,0-236.9,67.4-473.9,67.4
					s-236.9-67.4-473.9-67.4c-236.9,0-236.9,67.4-473.9,67.4c-236.9,0-236.9-67.4-473.9-67.4s-236.9,67.4-473.9,67.4
					c-236.9,0-236.9-67.4-473.9-67.4S237,3096.1,0.1,3096.1"/>
			</g>
			<g>
				<path class="st1" d="M7582.3,3138.3c-236.9,0-236.9-67.4-473.9-67.4c-236.9,0-236.9,67.4-473.9,67.4
					c-236.9,0-236.9-67.4-473.9-67.4c-236.9,0-236.9,67.4-473.9,67.4c-236.9,0-236.9-67.4-473.9-67.4s-236.9,67.4-473.9,67.4
					s-236.9-67.4-473.9-67.4c-236.9,0-236.9,67.4-473.9,67.4c-236.9,0-236.9-67.4-473.9-67.4c-236.9,0-236.9,67.4-473.9,67.4
					s-236.9-67.4-473.9-67.4c-236.9,0-236.9,67.4-473.9,67.4s-236.9-67.4-473.9-67.4s-236.9,67.4-473.9,67.4
					c-236.9,0-236.9-67.4-473.9-67.4S237,3138.3,0.1,3138.3"/>
			</g>
			<g>
				<path class="st1" d="M7582.3,3180.4c-236.9,0-236.9-67.4-473.9-67.4c-236.9,0-236.9,67.4-473.9,67.4
					c-236.9,0-236.9-67.4-473.9-67.4c-236.9,0-236.9,67.4-473.9,67.4s-236.9-67.4-473.9-67.4c-236.9,0-236.9,67.4-473.9,67.4
					c-236.9,0-236.9-67.4-473.9-67.4c-236.9,0-236.9,67.4-473.9,67.4s-236.9-67.4-473.9-67.4c-236.9,0-236.9,67.4-473.9,67.4
					c-236.9,0-236.9-67.4-473.9-67.4c-236.9,0-236.9,67.4-473.9,67.4c-236.9,0-236.9-67.4-473.9-67.4s-236.9,67.4-473.9,67.4
					c-236.9,0-236.9-67.4-473.9-67.4S237,3180.4,0.1,3180.4"/>
			</g>
			<g>
				<path class="st1" d="M7582.3,3222.5c-236.9,0-236.9-67.4-473.9-67.4c-236.9,0-236.9,67.4-473.9,67.4
					c-236.9,0-236.9-67.4-473.9-67.4c-236.9,0-236.9,67.4-473.9,67.4c-236.9,0-236.9-67.4-473.9-67.4s-236.9,67.4-473.9,67.4
					s-236.9-67.4-473.9-67.4c-236.9,0-236.9,67.4-473.9,67.4c-236.9,0-236.9-67.4-473.9-67.4c-236.9,0-236.9,67.4-473.9,67.4
					c-236.9,0-236.9-67.4-473.9-67.4c-236.9,0-236.9,67.4-473.9,67.4c-236.9,0-236.9-67.4-473.9-67.4s-236.9,67.4-473.9,67.4
					c-236.9,0-236.9-67.4-473.9-67.4S237,3222.5,0.1,3222.5"/>
			</g>
			<g>
				<path class="st1" d="M7582.3,3264.6c-236.9,0-236.9-67.4-473.9-67.4c-236.9,0-236.9,67.4-473.9,67.4s-236.9-67.4-473.9-67.4
					c-236.9,0-236.9,67.4-473.9,67.4s-236.9-67.4-473.9-67.4s-236.9,67.4-473.9,67.4s-236.9-67.4-473.9-67.4
					c-236.9,0-236.9,67.4-473.9,67.4c-236.9,0-236.9-67.4-473.9-67.4c-236.9,0-236.9,67.4-473.9,67.4
					c-236.9,0-236.9-67.4-473.9-67.4c-236.9,0-236.9,67.4-473.9,67.4s-236.9-67.4-473.9-67.4s-236.9,67.4-473.9,67.4
					c-236.9,0-236.9-67.4-473.9-67.4S237,3264.6,0.1,3264.6"/>
			</g>
			<g>
				<path class="st1" d="M7582.3,3306.7c-236.9,0-236.9-67.4-473.9-67.4c-236.9,0-236.9,67.4-473.9,67.4
					c-236.9,0-236.9-67.4-473.9-67.4c-236.9,0-236.9,67.4-473.9,67.4c-236.9,0-236.9-67.4-473.9-67.4s-236.9,67.4-473.9,67.4
					c-236.9,0-236.9-67.4-473.9-67.4c-236.9,0-236.9,67.4-473.9,67.4c-236.9,0-236.9-67.4-473.9-67.4
					c-236.9,0-236.9,67.4-473.9,67.4s-236.9-67.4-473.9-67.4c-236.9,0-236.9,67.4-473.9,67.4c-236.9,0-236.9-67.4-473.9-67.4
					s-236.9,67.4-473.9,67.4c-236.9,0-236.9-67.4-473.9-67.4S237,3306.7,0.1,3306.7"/>
			</g>
			<g>
				<path class="st1" d="M7582.3,3348.9c-236.9,0-236.9-67.4-473.9-67.4c-236.9,0-236.9,67.4-473.9,67.4
					c-236.9,0-236.9-67.4-473.9-67.4c-236.9,0-236.9,67.4-473.9,67.4c-236.9,0-236.9-67.4-473.9-67.4s-236.9,67.4-473.9,67.4
					s-236.9-67.4-473.9-67.4c-236.9,0-236.9,67.4-473.9,67.4s-236.9-67.4-473.9-67.4c-236.9,0-236.9,67.4-473.9,67.4
					s-236.9-67.4-473.9-67.4c-236.9,0-236.9,67.4-473.9,67.4c-236.9,0-236.9-67.4-473.9-67.4s-236.9,67.4-473.9,67.4
					c-236.9,0-236.9-67.4-473.9-67.4S237,3348.9,0.1,3348.9"/>
			</g>
			<g>
				<path class="st1" d="M7582.3,3391c-236.9,0-236.9-67.4-473.9-67.4c-236.9,0-236.9,67.4-473.9,67.4
					c-236.9,0-236.9-67.4-473.9-67.4c-236.9,0-236.9,67.4-473.9,67.4s-236.9-67.4-473.9-67.4S4975.9,3391,4739,3391
					s-236.9-67.4-473.9-67.4c-236.9,0-236.9,67.4-473.9,67.4c-236.9,0-236.9-67.4-473.9-67.4c-236.9,0-236.9,67.4-473.9,67.4
					c-236.9,0-236.9-67.4-473.9-67.4c-236.9,0-236.9,67.4-473.9,67.4c-236.9,0-236.9-67.4-473.9-67.4s-236.9,67.4-473.9,67.4
					c-236.9,0-236.9-67.4-473.9-67.4S237,3391,0.1,3391"/>
			</g>
			<g>
				<path class="st1" d="M7582.3,3433.1c-236.9,0-236.9-67.4-473.9-67.4c-236.9,0-236.9,67.4-473.9,67.4
					c-236.9,0-236.9-67.4-473.9-67.4c-236.9,0-236.9,67.4-473.9,67.4c-236.9,0-236.9-67.4-473.9-67.4s-236.9,67.4-473.9,67.4
					s-236.9-67.4-473.9-67.4c-236.9,0-236.9,67.4-473.9,67.4c-236.9,0-236.9-67.4-473.9-67.4c-236.9,0-236.9,67.4-473.9,67.4
					c-236.9,0-236.9-67.4-473.9-67.4c-236.9,0-236.9,67.4-473.9,67.4s-236.9-67.4-473.9-67.4s-236.9,67.4-473.9,67.4
					c-236.9,0-236.9-67.4-473.9-67.4S237,3433.1,0.1,3433.1"/>
			</g>
			<g>
				<path class="st1" d="M7582.3,3475.2c-236.9,0-236.9-67.4-473.9-67.4c-236.9,0-236.9,67.4-473.9,67.4
					c-236.9,0-236.9-67.4-473.9-67.4c-236.9,0-236.9,67.4-473.9,67.4c-236.9,0-236.9-67.4-473.9-67.4s-236.9,67.4-473.9,67.4
					s-236.9-67.4-473.9-67.4c-236.9,0-236.9,67.4-473.9,67.4c-236.9,0-236.9-67.4-473.9-67.4c-236.9,0-236.9,67.4-473.9,67.4
					s-236.9-67.4-473.9-67.4c-236.9,0-236.9,67.4-473.9,67.4c-236.9,0-236.9-67.4-473.9-67.4s-236.9,67.4-473.9,67.4
					c-236.9,0-236.9-67.4-473.9-67.4S237,3475.2,0.1,3475.2"/>
			</g>
			<g>
				<path class="st1" d="M7582.3,3517.4c-236.9,0-236.9-67.4-473.9-67.4c-236.9,0-236.9,67.4-473.9,67.4
					c-236.9,0-236.9-67.4-473.9-67.4c-236.9,0-236.9,67.4-473.9,67.4s-236.9-67.4-473.9-67.4c-236.9,0-236.9,67.4-473.9,67.4
					c-236.9,0-236.9-67.4-473.9-67.4c-236.9,0-236.9,67.4-473.9,67.4s-236.9-67.4-473.9-67.4c-236.9,0-236.9,67.4-473.9,67.4
					s-236.9-67.4-473.9-67.4c-236.9,0-236.9,67.4-473.9,67.4s-236.9-67.4-473.9-67.4s-236.9,67.4-473.9,67.4
					c-236.9,0-236.9-67.4-473.9-67.4S237,3517.4,0.1,3517.4"/>
			</g>
			<g>
				<path class="st1" d="M7582.3,3559.5c-236.9,0-236.9-67.4-473.9-67.4c-236.9,0-236.9,67.4-473.9,67.4
					c-236.9,0-236.9-67.4-473.9-67.4c-236.9,0-236.9,67.4-473.9,67.4c-236.9,0-236.9-67.4-473.9-67.4s-236.9,67.4-473.9,67.4
					s-236.9-67.4-473.9-67.4c-236.9,0-236.9,67.4-473.9,67.4s-236.9-67.4-473.9-67.4c-236.9,0-236.9,67.4-473.9,67.4
					c-236.9,0-236.9-67.4-473.9-67.4c-236.9,0-236.9,67.4-473.9,67.4c-236.9,0-236.9-67.4-473.9-67.4s-236.9,67.4-473.9,67.4
					c-236.9,0-236.9-67.4-473.9-67.4s-236.9,67.4-473.9,67.4"/>
			</g>
			<g>
				<path class="st1" d="M7582.3,3601.6c-236.9,0-236.9-67.4-473.9-67.4c-236.9,0-236.9,67.4-473.9,67.4s-236.9-67.4-473.9-67.4
					c-236.9,0-236.9,67.4-473.9,67.4s-236.9-67.4-473.9-67.4s-236.9,67.4-473.9,67.4s-236.9-67.4-473.9-67.4
					c-236.9,0-236.9,67.4-473.9,67.4c-236.9,0-236.9-67.4-473.9-67.4c-236.9,0-236.9,67.4-473.9,67.4
					c-236.9,0-236.9-67.4-473.9-67.4c-236.9,0-236.9,67.4-473.9,67.4s-236.9-67.4-473.9-67.4s-236.9,67.4-473.9,67.4
					c-236.9,0-236.9-67.4-473.9-67.4s-236.9,67.4-473.9,67.4"/>
			</g>
			<g>
				<path class="st1" d="M7582.3,3643.7c-236.9,0-236.9-67.4-473.9-67.4c-236.9,0-236.9,67.4-473.9,67.4
					c-236.9,0-236.9-67.4-473.9-67.4c-236.9,0-236.9,67.4-473.9,67.4c-236.9,0-236.9-67.4-473.9-67.4s-236.9,67.4-473.9,67.4
					c-236.9,0-236.9-67.4-473.9-67.4c-236.9,0-236.9,67.4-473.9,67.4c-236.9,0-236.9-67.4-473.9-67.4
					c-236.9,0-236.9,67.4-473.9,67.4s-236.9-67.4-473.9-67.4c-236.9,0-236.9,67.4-473.9,67.4c-236.9,0-236.9-67.4-473.9-67.4
					s-236.9,67.4-473.9,67.4c-236.9,0-236.9-67.4-473.9-67.4s-236.9,67.4-473.9,67.4"/>
			</g>
			<g>
				<path class="st1" d="M7582.3,3685.8c-236.9,0-236.9-67.4-473.9-67.4c-236.9,0-236.9,67.4-473.9,67.4
					c-236.9,0-236.9-67.4-473.9-67.4c-236.9,0-236.9,67.4-473.9,67.4c-236.9,0-236.9-67.4-473.9-67.4s-236.9,67.4-473.9,67.4
					s-236.9-67.4-473.9-67.4c-236.9,0-236.9,67.4-473.9,67.4c-236.9,0-236.9-67.4-473.9-67.4c-236.9,0-236.9,67.4-473.9,67.4
					s-236.9-67.4-473.9-67.4c-236.9,0-236.9,67.4-473.9,67.4s-236.9-67.4-473.9-67.4s-236.9,67.4-473.9,67.4
					c-236.9,0-236.9-67.4-473.9-67.4s-236.9,67.4-473.9,67.4"/>
			</g>
			<g>
				<path class="st1" d="M7582.3,3728c-236.9,0-236.9-67.4-473.9-67.4c-236.9,0-236.9,67.4-473.9,67.4
					c-236.9,0-236.9-67.4-473.9-67.4c-236.9,0-236.9,67.4-473.9,67.4s-236.9-67.4-473.9-67.4S4975.9,3728,4739,3728
					s-236.9-67.4-473.9-67.4c-236.9,0-236.9,67.4-473.9,67.4s-236.9-67.4-473.9-67.4c-236.9,0-236.9,67.4-473.9,67.4
					c-236.9,0-236.9-67.4-473.9-67.4c-236.9,0-236.9,67.4-473.9,67.4c-236.9,0-236.9-67.4-473.9-67.4s-236.9,67.4-473.9,67.4
					c-236.9,0-236.9-67.4-473.9-67.4S237.1,3728,0.1,3728"/>
			</g>
			<g>
				<path class="st1" d="M7582.3,3770.1c-236.9,0-236.9-67.4-473.9-67.4c-236.9,0-236.9,67.4-473.9,67.4
					c-236.9,0-236.9-67.4-473.9-67.4c-236.9,0-236.9,67.4-473.9,67.4c-236.9,0-236.9-67.4-473.9-67.4s-236.9,67.4-473.9,67.4
					s-236.9-67.4-473.9-67.4c-236.9,0-236.9,67.4-473.9,67.4c-236.9,0-236.9-67.4-473.9-67.4c-236.9,0-236.9,67.4-473.9,67.4
					c-236.9,0-236.9-67.4-473.9-67.4c-236.9,0-236.9,67.4-473.9,67.4s-236.9-67.4-473.9-67.4s-236.9,67.4-473.9,67.4
					c-236.9,0-236.9-67.4-473.9-67.4s-236.9,67.4-473.9,67.4"/>
			</g>
			<g>
				<path class="st1" d="M7582.3,3812.2c-236.9,0-236.9-67.4-473.9-67.4c-236.9,0-236.9,67.4-473.9,67.4s-236.9-67.4-473.9-67.4
					c-236.9,0-236.9,67.4-473.9,67.4c-236.9,0-236.9-67.4-473.9-67.4s-236.9,67.4-473.9,67.4s-236.9-67.4-473.9-67.4
					c-236.9,0-236.9,67.4-473.9,67.4c-236.9,0-236.9-67.4-473.9-67.4c-236.9,0-236.9,67.4-473.9,67.4s-236.9-67.4-473.9-67.4
					c-236.9,0-236.9,67.4-473.9,67.4c-236.9,0-236.9-67.4-473.9-67.4s-236.9,67.4-473.9,67.4c-236.9,0-236.9-67.4-473.9-67.4
					s-236.9,67.4-473.9,67.4"/>
			</g>
			<g>
				<path class="st1" d="M7582.3,3854.3c-236.9,0-236.9-67.4-473.9-67.4c-236.9,0-236.9,67.4-473.9,67.4
					c-236.9,0-236.9-67.4-473.9-67.4c-236.9,0-236.9,67.4-473.9,67.4s-236.9-67.4-473.9-67.4c-236.9,0-236.9,67.4-473.9,67.4
					c-236.9,0-236.9-67.4-473.9-67.4c-236.9,0-236.9,67.4-473.9,67.4c-236.9,0-236.9-67.4-473.9-67.4
					c-236.9,0-236.9,67.4-473.9,67.4s-236.9-67.4-473.9-67.4c-236.9,0-236.9,67.4-473.9,67.4s-236.9-67.4-473.9-67.4
					s-236.9,67.4-473.9,67.4c-236.9,0-236.9-67.4-473.9-67.4s-236.9,67.4-473.9,67.4"/>
			</g>
			<g>
				<path class="st1" d="M7582.3,3896.5c-236.9,0-236.9-67.4-473.9-67.4c-236.9,0-236.9,67.4-473.9,67.4
					c-236.9,0-236.9-67.4-473.9-67.4c-236.9,0-236.9,67.4-473.9,67.4c-236.9,0-236.9-67.4-473.9-67.4s-236.9,67.4-473.9,67.4
					s-236.9-67.4-473.9-67.4c-236.9,0-236.9,67.4-473.9,67.4s-236.9-67.4-473.9-67.4c-236.9,0-236.9,67.4-473.9,67.4
					c-236.9,0-236.9-67.4-473.9-67.4c-236.9,0-236.9,67.4-473.9,67.4c-236.9,0-236.9-67.4-473.9-67.4s-236.9,67.4-473.9,67.4
					c-236.9,0-236.9-67.4-473.9-67.4s-236.9,67.4-473.9,67.4"/>
			</g>
			<g>
				<path class="st1" d="M7582.3,3938.6c-236.9,0-236.9-67.4-473.9-67.4c-236.9,0-236.9,67.4-473.9,67.4s-236.9-67.4-473.9-67.4
					c-236.9,0-236.9,67.4-473.9,67.4s-236.9-67.4-473.9-67.4s-236.9,67.4-473.9,67.4s-236.9-67.4-473.9-67.4
					c-236.9,0-236.9,67.4-473.9,67.4c-236.9,0-236.9-67.4-473.9-67.4c-236.9,0-236.9,67.4-473.9,67.4
					c-236.9,0-236.9-67.4-473.9-67.4c-236.9,0-236.9,67.4-473.9,67.4s-236.9-67.4-473.9-67.4s-236.9,67.4-473.9,67.4
					c-236.9,0-236.9-67.4-473.9-67.4s-236.9,67.4-473.9,67.4"/>
			</g>
			<g>
				<path class="st1" d="M7582.3,3980.7c-236.9,0-236.9-67.4-473.9-67.4c-236.9,0-236.9,67.4-473.9,67.4
					c-236.9,0-236.9-67.4-473.9-67.4c-236.9,0-236.9,67.4-473.9,67.4c-236.9,0-236.9-67.4-473.9-67.4s-236.9,67.4-473.9,67.4
					c-236.9,0-236.9-67.4-473.9-67.4c-236.9,0-236.9,67.4-473.9,67.4c-236.9,0-236.9-67.4-473.9-67.4
					c-236.9,0-236.9,67.4-473.9,67.4s-236.9-67.4-473.9-67.4c-236.9,0-236.9,67.4-473.9,67.4c-236.9,0-236.9-67.4-473.9-67.4
					s-236.9,67.4-473.9,67.4c-236.9,0-236.9-67.4-473.9-67.4s-236.9,67.4-473.9,67.4"/>
			</g>
			<g>
				<path class="st1" d="M7582.3,4022.8c-236.9,0-236.9-67.4-473.9-67.4c-236.9,0-236.9,67.4-473.9,67.4
					c-236.9,0-236.9-67.4-473.9-67.4c-236.9,0-236.9,67.4-473.9,67.4c-236.9,0-236.9-67.4-473.9-67.4s-236.9,67.4-473.9,67.4
					s-236.9-67.4-473.9-67.4c-236.9,0-236.9,67.4-473.9,67.4c-236.9,0-236.9-67.4-473.9-67.4c-236.9,0-236.9,67.4-473.9,67.4
					s-236.9-67.4-473.9-67.4c-236.9,0-236.9,67.4-473.9,67.4s-236.9-67.4-473.9-67.4s-236.9,67.4-473.9,67.4
					c-236.9,0-236.9-67.4-473.9-67.4s-236.9,67.4-473.9,67.4"/>
			</g>
			<g>
				<path class="st1" d="M7582.3,4064.9c-236.9,0-236.9-67.4-473.9-67.4c-236.9,0-236.9,67.4-473.9,67.4
					c-236.9,0-236.9-67.4-473.9-67.4c-236.9,0-236.9,67.4-473.9,67.4s-236.9-67.4-473.9-67.4s-236.9,67.4-473.9,67.4
					c-236.9,0-236.9-67.4-473.9-67.4c-236.9,0-236.9,67.4-473.9,67.4s-236.9-67.4-473.9-67.4c-236.9,0-236.9,67.4-473.9,67.4
					c-236.9,0-236.9-67.4-473.9-67.4c-236.9,0-236.9,67.4-473.9,67.4c-236.9,0-236.9-67.4-473.9-67.4s-236.9,67.4-473.9,67.4
					c-236.9,0-236.9-67.4-473.9-67.4s-236.9,67.4-473.9,67.4"/>
			</g>
			<g>
				<path class="st1" d="M7582.3,4107.1c-236.9,0-236.9-67.4-473.9-67.4c-236.9,0-236.9,67.4-473.9,67.4
					c-236.9,0-236.9-67.4-473.9-67.4c-236.9,0-236.9,67.4-473.9,67.4c-236.9,0-236.9-67.4-473.9-67.4s-236.9,67.4-473.9,67.4
					s-236.9-67.4-473.9-67.4c-236.9,0-236.9,67.4-473.9,67.4c-236.9,0-236.9-67.4-473.9-67.4c-236.9,0-236.9,67.4-473.9,67.4
					c-236.9,0-236.9-67.4-473.9-67.4c-236.9,0-236.9,67.4-473.9,67.4s-236.9-67.4-473.9-67.4s-236.9,67.4-473.9,67.4
					c-236.9,0-236.9-67.4-473.9-67.4s-236.9,67.4-473.9,67.4"/>
			</g>
			<g>
				<path class="st1" d="M7582.3,4149.2c-236.9,0-236.9-67.4-473.9-67.4c-236.9,0-236.9,67.4-473.9,67.4s-236.9-67.4-473.9-67.4
					c-236.9,0-236.9,67.4-473.9,67.4c-236.9,0-236.9-67.4-473.9-67.4s-236.9,67.4-473.9,67.4s-236.9-67.4-473.9-67.4
					c-236.9,0-236.9,67.4-473.9,67.4c-236.9,0-236.9-67.4-473.9-67.4c-236.9,0-236.9,67.4-473.9,67.4s-236.9-67.4-473.9-67.4
					c-236.9,0-236.9,67.4-473.9,67.4c-236.9,0-236.9-67.4-473.9-67.4s-236.9,67.4-473.9,67.4c-236.9,0-236.9-67.4-473.9-67.4
					s-236.9,67.4-473.9,67.4"/>
			</g>
			<g>
				<path class="st1" d="M7582.3,4191.3c-236.9,0-236.9-67.4-473.9-67.4c-236.9,0-236.9,67.4-473.9,67.4
					c-236.9,0-236.9-67.4-473.9-67.4c-236.9,0-236.9,67.4-473.9,67.4c-236.9,0-236.9-67.4-473.9-67.4
					c-236.9,0-236.9,67.4-473.9,67.4c-236.9,0-236.9-67.4-473.9-67.4c-236.9,0-236.9,67.4-473.9,67.4
					c-236.9,0-236.9-67.4-473.9-67.4c-236.9,0-236.9,67.4-473.9,67.4s-236.9-67.4-473.9-67.4c-236.9,0-236.9,67.4-473.9,67.4
					s-236.9-67.4-473.9-67.4c-236.9,0-236.9,67.4-473.9,67.4c-236.9,0-236.9-67.4-473.9-67.4c-236.9,0-236.9,67.4-473.9,67.4"/>
			</g>
			<g>
				<path class="st1" d="M7582.3,4233.4c-236.9,0-236.9-67.4-473.9-67.4c-236.9,0-236.9,67.4-473.9,67.4
					c-236.9,0-236.9-67.4-473.9-67.4c-236.9,0-236.9,67.4-473.9,67.4c-236.9,0-236.9-67.4-473.9-67.4s-236.9,67.4-473.9,67.4
					S4502,4166,4265.1,4166s-236.9,67.4-473.9,67.4s-236.9-67.4-473.9-67.4c-236.9,0-236.9,67.4-473.9,67.4
					c-236.9,0-236.9-67.4-473.9-67.4c-236.9,0-236.9,67.4-473.9,67.4c-236.9,0-236.9-67.4-473.9-67.4s-236.9,67.4-473.9,67.4
					C711,4233.4,711,4166,474,4166s-236.9,67.4-473.9,67.4"/>
			</g>
			<g>
				<path class="st1" d="M7582.3,4275.6c-236.9,0-236.9-67.4-473.9-67.4c-236.9,0-236.9,67.4-473.9,67.4s-236.9-67.4-473.9-67.4
					c-236.9,0-236.9,67.4-473.9,67.4s-236.9-67.4-473.9-67.4s-236.9,67.4-473.9,67.4c-236.9,0-236.9-67.4-473.9-67.4
					c-236.9,0-236.9,67.4-473.9,67.4c-236.9,0-236.9-67.4-473.9-67.4c-236.9,0-236.9,67.4-473.9,67.4
					c-236.9,0-236.9-67.4-473.9-67.4c-236.9,0-236.9,67.4-473.9,67.4s-236.9-67.4-473.9-67.4s-236.9,67.4-473.9,67.4
					c-236.9,0-236.9-67.4-473.9-67.4s-236.9,67.4-473.9,67.4"/>
			</g>
			<g>
				<path class="st1" d="M7582.3,4317.7c-236.9,0-236.9-67.4-473.9-67.4c-236.9,0-236.9,67.4-473.9,67.4
					c-236.9,0-236.9-67.4-473.9-67.4c-236.9,0-236.9,67.4-473.9,67.4c-236.9,0-236.9-67.4-473.9-67.4s-236.9,67.4-473.9,67.4
					s-236.9-67.4-473.9-67.4c-236.9,0-236.9,67.4-473.9,67.4c-236.9,0-236.9-67.4-473.9-67.4c-236.9,0-236.9,67.4-473.9,67.4
					s-236.9-67.4-473.9-67.4c-236.9,0-236.9,67.4-473.9,67.4s-236.9-67.4-473.9-67.4s-236.9,67.4-473.9,67.4
					c-236.9,0-236.9-67.4-473.9-67.4s-236.9,67.4-473.9,67.4"/>
			</g>
			<g>
				<path class="st1" d="M7582.3,4359.8c-236.9,0-236.9-67.4-473.9-67.4c-236.9,0-236.9,67.4-473.9,67.4
					c-236.9,0-236.9-67.4-473.9-67.4c-236.9,0-236.9,67.4-473.9,67.4c-236.9,0-236.9-67.4-473.9-67.4s-236.9,67.4-473.9,67.4
					s-236.9-67.4-473.9-67.4c-236.9,0-236.9,67.4-473.9,67.4c-236.9,0-236.9-67.4-473.9-67.4c-236.9,0-236.9,67.4-473.9,67.4
					s-236.9-67.4-473.9-67.4c-236.9,0-236.9,67.4-473.9,67.4c-236.9,0-236.9-67.4-473.9-67.4s-236.9,67.4-473.9,67.4
					c-236.9,0-236.9-67.4-473.9-67.4s-236.9,67.4-473.9,67.4"/>
			</g>
			<g>
				<path class="st1" d="M7582.3,4401.9c-236.9,0-236.9-67.4-473.9-67.4c-236.9,0-236.9,67.4-473.9,67.4
					c-236.9,0-236.9-67.4-473.9-67.4c-236.9,0-236.9,67.4-473.9,67.4s-236.9-67.4-473.9-67.4c-236.9,0-236.9,67.4-473.9,67.4
					c-236.9,0-236.9-67.4-473.9-67.4c-236.9,0-236.9,67.4-473.9,67.4s-236.9-67.4-473.9-67.4c-236.9,0-236.9,67.4-473.9,67.4
					c-236.9,0-236.9-67.4-473.9-67.4c-236.9,0-236.9,67.4-473.9,67.4c-236.9,0-236.9-67.4-473.9-67.4s-236.9,67.4-473.9,67.4
					c-236.9,0-236.9-67.4-473.9-67.4s-236.9,67.4-473.9,67.4"/>
			</g>
		</g>
	</g>
</g>
</svg>
