<?xml version="1.0" standalone="no"?>
<!DOCTYPE svg PUBLIC "-//W3C//DTD SVG 1.1//EN" "http://www.w3.org/Graphics/SVG/1.1/DTD/svg11.dtd" >
<svg xmlns="http://www.w3.org/2000/svg">
<metadata>Generated by IcoMoon</metadata>
<defs>
<font id="icomoon" horiz-adv-x="1024">
<font-face units-per-em="1024" ascent="960" descent="-64" />
<missing-glyph horiz-adv-x="1024" />
<glyph unicode="&#x20;" horiz-adv-x="512" d="" />
<glyph unicode="&#xe900;" glyph-name="heart" horiz-adv-x="1143" d="M568.11-71.014l-476.932 483.945c-63.123 56.11-98.192 140.274-98.192 224.438s35.068 168.329 91.178 224.438c70.137 70.137 161.315 105.205 259.507 91.178 91.178-7.014 168.329-56.11 224.438-126.247 49.096 70.137 126.247 119.233 210.411 126.247 98.192 14.027 189.37-21.041 266.521-91.178 63.123-63.123 91.178-140.274 91.178-224.438s-28.055-168.329-91.178-224.438l-476.932-483.945zM315.616 854.795c-56.11 0-112.219-21.041-154.301-63.123-84.164-84.164-84.164-217.425 0-301.589l406.795-406.795 406.795 406.795c84.164 84.164 84.164 217.425 0 301.589-49.096 49.096-112.219 70.137-175.342 63.123s-112.219-42.082-147.288-98.192l-7.014-7.014-84.164-98.192-70.137 98.192c-28.055 63.123-84.164 91.178-154.301 98.192-7.014 7.014-14.027 7.014-21.041 7.014z" />
<glyph unicode="&#xe901;" glyph-name="comment" horiz-adv-x="1213" d="M1031.014-56.986l-364.712 189.37h-666.301v820.603h1206.356v-827.616h-182.356v-182.356zM105.205 237.589h575.123l238.466-119.233v119.233h182.356v610.192h-995.945v-610.192zM210.411 763.616h785.534v-105.205h-785.534v105.205zM210.411 602.301h448.877v-105.205h-448.877v105.205zM210.411 448h596.164v-105.205h-596.164v105.205z" />
<glyph unicode="&#xe902;" glyph-name="leftarrow" horiz-adv-x="619" d="M512-64l-512 512 512 512 106.985-106.985-405.015-405.015 405.015-405.015z" />
<glyph unicode="&#xe903;" glyph-name="rightarrow" horiz-adv-x="619" d="M106.985-64l-106.985 106.985 405.015 405.015-405.015 405.015 106.985 106.985 512-512z" />
<glyph unicode="&#xe904;" glyph-name="paperclip" horiz-adv-x="923" d="M76.040 12.040c-157.149 157.149-20.277 319.366 25.347 364.99l527.208 527.208c20.277 20.277 55.762 45.624 101.386 50.693 30.416 10.139 86.178 5.069 136.871-45.624 0 0 0 0 0 0 50.693-50.693 55.762-106.455 50.693-141.941-10.139-50.693-40.554-86.178-50.693-101.386l-527.208-527.208c-15.208-15.208-45.624-45.624-86.178-45.624-25.347 0-50.693 10.139-70.97 35.485 0 0 0 0 0 0-40.554 40.554-35.485 96.317 20.277 147.010l527.208 532.277c5.069 5.069 20.277 5.069 25.347 0v0c5.069-5.069 5.069-20.277 0-25.347l-527.208-532.277c-60.832-60.832-30.416-86.178-20.277-96.317 0 0 0 0 0 0 15.208-15.208 30.416-20.277 45.624-20.277 25.347 0 50.693 25.347 60.832 35.485l527.208 527.208c10.139 10.139 35.485 40.554 40.554 81.109s-10.139 76.040-40.554 111.525c0 0 0 0 0 0-30.416 30.416-70.97 45.624-111.525 40.554-35.485-5.069-65.901-25.347-81.109-40.554l-527.208-532.277c-65.901-65.901-152.079-187.564-25.347-319.366 126.733-126.733 248.396-35.485 314.297 25.347l456.238 461.307c5.069 5.069 20.277 5.069 25.347 0v0c5.069-5.069 5.069-20.277 0-25.347l-456.238-461.307c-121.663-121.663-253.465-131.802-359.921-25.347z" />
<glyph unicode="&#xe905;" glyph-name="pinterest" horiz-adv-x="794" d="M422.4 960c-281.6 0-422.4-198.4-422.4-364.8 0-102.4 38.4-192 121.6-224 12.8-6.4 25.6 0 32 12.8 0 12.8 6.4 38.4 12.8 44.8 6.4 12.8 0 19.2-6.4 32-32 32-44.8 64-44.8 115.2 0 147.2 108.8 281.6 288 281.6 160 0 243.2-96 243.2-224 0-166.4-70.4-313.6-185.6-313.6-64 0-108.8 51.2-96 115.2 25.6 76.8 57.6 153.6 57.6 211.2 0 51.2-25.6 89.6-76.8 89.6-64 0-115.2-64-115.2-153.6 0-57.6 19.2-96 19.2-96s-64-275.2-76.8-320c-25.6-96-6.4-211.2 0-224 0-6.4 6.4-6.4 12.8-6.4 6.4 6.4 83.2 102.4 108.8 192 6.4 25.6 38.4 160 38.4 160 19.2-38.4 83.2-70.4 140.8-70.4 192 0 320 172.8 320 403.2 0 179.2-147.2 339.2-371.2 339.2z" />
<glyph unicode="&#xe906;" glyph-name="twitter" horiz-adv-x="1254" d="M1254.202 840.93c-39.69-23.814-95.256-39.69-142.884-39.69 55.566 31.752 95.256 79.38 111.132 142.884-47.628-31.752-103.194-47.628-166.698-63.504-47.628 47.628-111.132 79.38-190.512 79.38-134.946 0-254.016-119.070-254.016-254.016 0-23.814 0-39.69 7.938-55.566-214.326 0-404.837 103.194-531.845 261.953-23.814-39.69-31.752-79.38-31.752-127.008 0-87.318 47.628-166.698 111.132-214.326-39.69 0-79.38 15.876-119.070 31.752 0 0 0 0 0 0 0-127.008 87.318-230.202 206.388-254.016-15.876-7.938-39.69-15.876-63.504-15.876-15.876 0-31.752 0-47.628 7.938 31.752-103.194 127.008-174.636 238.14-182.574-87.318-71.442-198.45-111.132-317.519-111.132-23.814 0-39.69 0-63.504 0 111.132-71.442 246.078-119.070 396.899-119.070 476.279 0 730.295 388.961 730.295 730.295 0 7.938 0 23.814 0 31.752 47.628 55.566 95.256 95.256 127.008 150.822z" />
<glyph unicode="&#xe907;" glyph-name="facebook" horiz-adv-x="476" d="M475.665 629.677h-158.555v105.703c0 39.639 26.426 46.245 46.245 46.245s112.31 0 112.31 0v178.374h-158.555c-178.374 0-218.013-132.129-218.013-218.013v-112.31h-99.097v-178.374h99.097c0-231.226 0-515.303 0-515.303h211.406c0 0 0 284.077 0 515.303h145.342l19.819 178.374z" />
<glyph unicode="&#xe908;" glyph-name="close" d="M-2.728 834.759l127.030 127.030 895.561-895.561-127.030-127.030-895.561 895.561zM-2.728 59.912l895.561 895.561 127.030-127.030-895.561-895.561-127.030 127.030z" />
<glyph unicode="&#xe909;" glyph-name="magnifying-glass" horiz-adv-x="994" d="M421.647 116.706c-233.412 0-421.647 188.235-421.647 421.647s188.235 421.647 421.647 421.647c233.412 0 421.647-188.235 421.647-421.647s-188.235-421.647-421.647-421.647zM421.647 809.412c-150.588 0-271.059-120.471-271.059-271.059s120.471-271.059 271.059-271.059 271.059 120.471 271.059 271.059-120.471 271.059-271.059 271.059zM619.304 204.085l106.481 106.481 271.526-271.526-106.481-106.481-271.526 271.526z" />
<glyph unicode="&#xe90a;" glyph-name="dropdown" horiz-adv-x="1544" d="M771.938-64l-771.938 803.446 220.554 220.554 551.385-582.892 551.385 582.892 220.554-220.554z" />
<glyph unicode="&#xe90b;" glyph-name="plus" d="M393.846 960h225.055v-1024h-225.055v1024zM0 566.154h1024v-225.055h-1024v225.055z" />
<glyph unicode="&#xe90c;" glyph-name="minus" d="M0 566.154h1024v-225.055h-1024v225.055z" />
<glyph unicode="&#xe90d;" glyph-name="linked-in" d="M948.222 960h-872.361c-41.899 0-75.861-32.982-75.861-73.428v-877.355c0-40.321 33.962-73.216 75.861-73.216h872.32c41.942 0 75.818 32.896 75.818 73.216v877.355c0 40.447-33.879 73.428-75.778 73.428zM310.527 102.869h-154.665v462.209h154.667v-462.209zM233.087 628.139h-1.024c-51.925 0-85.504 35.755-85.504 79.958 0 45.441 34.603 79.958 87.509 79.958 52.949 0 85.504-34.517 86.485-79.958 0.043-44.203-33.493-79.958-87.466-79.958zM868.138 102.869h-154.367v247.211c0 62.123-22.698 104.832-78.677 104.832-42.965 0-68.096-28.756-79.146-56.66-4.054-9.472-5.12-23.338-5.12-37.247v-258.132h-154.753c0 0 1.962 418.943 0 462.209h154.753v-65.537c20.31 31.446 57.089 76.459 139.22 76.459 101.887 0 178.091-66.092 178.091-208.085v-265.047zM549.887 498.048c0.128 0.469 0.341 0.938 0.895 1.45v-1.45h-0.895z" />
<glyph unicode="&#xe90e;" glyph-name="horse" d="M768-64h-25.6l-12.8 19.2c-70.4 89.6-121.6 166.4-147.2 204.8l-134.4-76.8c0 0-6.4-19.2-12.8-32s-12.8-25.6-12.8-32c-51.2-83.2-166.4-108.8-249.6-57.6l-89.6 51.2c-38.4 19.2-64 57.6-76.8 96s-6.4 76.8 19.2 108.8l204.8 320c12.8 12.8 12.8 32 19.2 44.8 6.4 64 38.4 115.2 83.2 147.2 19.2 12.8 32 19.2 38.4 32l12.8 6.4c6.4 12.8-19.2 89.6-25.6 128l-19.2 51.2 51.2 12.8c108.8 19.2 204.8-19.2 288-115.2 32-38.4 147.2-96 275.2-134.4l25.6-6.4 6.4-25.6c51.2-217.6 44.8-512-64-646.4-32-70.4-89.6-96-153.6-96zM672 204.8c25.6-38.4 64-96 121.6-172.8 25.6 6.4 44.8 19.2 64 38.4 83.2 102.4 89.6 352 51.2 544-89.6 32-236.8 89.6-300.8 160-44.8 57.6-89.6 83.2-140.8 89.6 19.2-70.4 25.6-134.4-25.6-172.8l-6.4-6.4c-12.8-12.8-25.6-19.2-44.8-38.4-32-12.8-44.8-44.8-51.2-76.8s-19.2-57.6-32-83.2l-204.8-313.6c-6.4-12.8-6.4-25.6-6.4-38.4 6.4-12.8 12.8-25.6 32-38.4l89.6-51.2c44.8-25.6 96-12.8 121.6 25.6 0 6.4 6.4 12.8 6.4 19.2 12.8 25.6 25.6 57.6 51.2 76.8l204.8 115.2c83.2 32 108.8 83.2 89.6 172.8 0 25.6 12.8 51.2 38.4 57.6s51.2-12.8 57.6-38.4c25.6-121.6-12.8-211.2-115.2-268.8z" />
<glyph unicode="&#xe90f;" glyph-name="account" horiz-adv-x="922" d="M457.387 448c-136.533 0-252.587 116.053-252.587 259.413s116.053 252.587 252.587 252.587 252.587-116.053 252.587-252.587-109.227-259.413-252.587-259.413zM457.387 857.6c-81.92 0-150.187-68.267-150.187-150.187s68.267-157.013 150.187-157.013 157.013 68.267 157.013 157.013-68.267 150.187-157.013 150.187zM457.387-64c-109.227 0-218.453 13.653-293.547 34.133-109.227 34.133-163.84 81.92-163.84 150.187 0 197.973 191.147 334.507 457.387 334.507s457.387-143.36 457.387-334.507c6.827-170.667-348.16-184.32-457.387-184.32zM457.387 352.427c-204.8 0-354.987-95.573-354.987-232.107 0-20.48 122.88-81.92 354.987-81.92 238.933 0 354.987 54.613 354.987 81.92 6.827 129.707-143.36 232.107-354.987 232.107z" />
<glyph unicode="&#xe910;" glyph-name="share" horiz-adv-x="1071" d="M902.737 623.158c-53.895 0-101.053-26.947-128-60.632l-437.895 202.105c0 6.737 0 20.211 0 26.947 0 94.316-74.105 168.421-168.421 168.421s-168.421-74.105-168.421-168.421 74.105-168.421 168.421-168.421c53.895 0 101.053 26.947 128 60.632l437.895-202.105c0-6.737 0-20.211 0-26.947 0-13.474 0-26.947 6.737-40.421l-444.632-202.105c-33.684 40.421-74.105 60.632-128 60.632-94.316 0-168.421-74.105-168.421-168.421s74.105-168.421 168.421-168.421 168.421 74.105 168.421 168.421c0 6.737 0 20.211 0 26.947l451.368 208.842c33.684-33.684 74.105-47.158 121.263-47.158 94.316 0 168.421 74.105 168.421 168.421s-80.842 161.684-175.158 161.684zM168.421 710.737c-47.158 0-80.842 40.421-80.842 80.842s40.421 80.842 80.842 80.842 80.842-40.421 80.842-80.842-33.684-80.842-80.842-80.842zM168.421 16.842c-47.158 0-80.842 40.421-80.842 80.842 0 47.158 40.421 80.842 80.842 80.842s80.842-40.421 80.842-80.842c0-40.421-33.684-80.842-80.842-80.842zM902.737 373.895c-47.158 0-80.842 40.421-80.842 80.842 0 47.158 40.421 80.842 80.842 80.842s80.842-40.421 80.842-80.842c6.737-47.158-33.684-80.842-80.842-80.842z" />
<glyph unicode="&#xe911;" glyph-name="email" horiz-adv-x="1420" d="M1350.992-64h-1290.756c-34.42 0-68.84 25.815-68.84 68.84v894.924c8.605 34.42 34.42 60.235 68.84 60.235s68.84-25.815 68.84-68.84v-826.084h1161.681v834.689c0 34.42 25.815 60.235 60.235 60.235s60.235-25.815 60.235-68.84v-894.924c8.605-25.815-17.21-60.235-60.235-60.235zM464.672 211.361c-17.21 0-43.025 8.605-51.63 25.815-25.815 34.42-17.21 77.445 8.605 94.655l249.546 172.101c25.815 17.21 68.84 17.21 86.050-17.21s17.21-68.84-17.21-86.050l-249.546-172.101c0-8.605-17.21-17.21-25.815-17.21zM955.16 211.361c-8.605 0-25.815 0-34.42 8.605l-249.546 172.101c-25.815 17.21-34.42 60.235-17.21 86.050s60.235 34.42 86.050 17.21l249.546-172.101c25.815-17.21 34.42-60.235 17.21-86.050-8.605-17.21-25.815-25.815-51.63-25.815zM705.613 383.462c-8.605 0-25.815 0-34.42 8.605l-645.378 447.462c-17.21 17.21-34.42 51.63-25.815 77.445s34.42 43.025 60.235 43.025h1290.756c25.815 0 51.63-17.21 60.235-43.025s0-60.235-25.815-68.84l-636.773-447.462c-17.21-8.605-25.815-17.21-43.025-17.21zM275.361 830.924l430.252-301.176 438.857 301.176h-869.109z" />
<glyph unicode="&#xe912;" glyph-name="whatsapp" d="M327.68 683.52c10.24 5.12 20.48 10.24 35.84 5.12 5.12 0 5.12 0 10.24 0 15.36 0 25.6-5.12 30.72-20.48 10.24-30.72 25.6-61.44 35.84-87.040 5.12-15.36 5.12-25.6-5.12-35.84-5.12-15.36-15.36-25.6-25.6-35.84-5.12-5.12-10.24-10.24-5.12-20.48 25.6-40.96 51.2-71.68 92.16-102.4 25.6-15.36 51.2-30.72 76.8-40.96 15.36-5.12 20.48-5.12 30.72 5.12 10.24 15.36 20.48 25.6 35.84 40.96 10.24 10.24 15.36 15.36 25.6 10.24 35.84-15.36 66.56-30.72 102.4-46.080 10.24-5.12 10.24-10.24 10.24-20.48 0-20.48-5.12-35.84-10.24-56.32-5.12-15.36-20.48-20.48-30.72-30.72-20.48-15.36-46.080-20.48-71.68-25.6-15.36 0-35.84 5.12-51.2 10.24-30.72 10.24-56.32 20.48-87.040 30.72-30.72 15.36-56.32 30.72-81.92 51.2-46.080 40.96-87.040 87.040-122.88 133.12-20.48 35.84-35.84 61.44-40.96 97.28-10.24 46.080 0 87.040 30.72 117.76 5.12 10.24 10.24 15.36 15.36 20.48zM5.12-48.64c5.12 15.36 10.24 30.72 15.36 46.080 20.48 66.56 46.080 133.12 66.56 199.68 0 5.12 0 10.24 0 15.36-5.12 10.24-15.36 25.6-20.48 35.84-20.48 35.84-30.72 76.8-40.96 112.64-15.36 71.68-15.36 143.36 5.12 215.040 20.48 76.8 51.2 143.36 102.4 199.68 35.84 46.080 81.92 81.92 133.12 112.64 56.32 35.84 117.76 56.32 184.32 61.44 15.36 5.12 25.6 10.24 40.96 10.24 20.48 0 40.96 0 61.44 0 0 0 5.12 0 5.12 0 51.2-5.12 102.4-15.36 153.6-35.84 87.040-35.84 158.72-87.040 209.92-163.84 51.2-71.68 87.040-148.48 97.28-235.52 0-10.24 0-25.6 5.12-35.84 0-20.48 0-40.96 0-61.44 0 0 0-5.12 0-5.12-5.12-46.080-15.36-97.28-30.72-138.24-25.6-66.56-61.44-122.88-112.64-174.080-30.72-30.72-66.56-61.44-107.52-81.92-71.68-40.96-148.48-61.44-230.4-66.56-92.16-5.12-174.080 15.36-256 56.32-5.12 0-5.12 5.12-10.24 0-40.96-5.12-81.92-20.48-122.88-30.72-30.72-10.24-66.56-20.48-97.28-30.72-15.36-5.12-35.84-10.24-51.2-15.36-5.12-5.12-5.12-5.12-5.12 0 5.12 0 5.12 5.12 5.12 10.24zM936.96 396.8c10.24 61.44 5.12 122.88-10.24 184.32-15.36 56.32-40.96 102.4-76.8 143.36-40.96 46.080-87.040 81.92-143.36 112.64-35.84 20.48-76.8 30.72-117.76 35.84-87.040 15.36-168.96 5.12-245.76-30.72-46.080-20.48-87.040-51.2-122.88-87.040-25.6-25.6-46.080-51.2-61.44-81.92-20.48-35.84-35.84-71.68-46.080-112.64s-15.36-81.92-15.36-122.88c0-35.84 10.24-76.8 20.48-112.64 15.36-35.84 30.72-71.68 56.32-107.52 5.12-5.12 5.12-5.12 0-10.24-15.36-35.84-25.6-76.8-40.96-112.64-5.12-10.24-5.12-20.48-10.24-35.84 10.24 0 15.36 5.12 20.48 5.12 46.080 15.36 92.16 30.72 133.12 40.96 5.12 0 10.24 0 15.36 0 15.36-10.24 35.84-20.48 56.32-30.72 71.68-30.72 148.48-40.96 225.28-30.72 46.080 5.12 87.040 15.36 122.88 35.84 30.72 15.36 61.44 35.84 92.16 56.32 35.84 30.72 71.68 66.56 97.28 112.64s46.080 97.28 51.2 148.48z" />
<glyph unicode="&#xe913;" glyph-name="check" horiz-adv-x="1321" d="M399.36-64c-20.48 0-51.2 10.24-71.68 30.72l-296.96 276.48c-40.96 40.96-40.96 102.4-10.24 143.36 40.96 40.96 102.4 40.96 143.36 0l225.28-215.040 747.52 747.52c40.96 40.96 102.4 40.96 143.36 0s40.96-102.4 0-143.36l-819.2-819.2c0-10.24-30.72-20.48-61.44-20.48z" />
<glyph unicode="&#xe914;" glyph-name="update" d="M2.080 57.029l879.784 879.784 116.786-116.786-879.784-879.784-116.786 116.786zM1024 145.204h-165.161v649.634h-649.634v165.161h814.796z" />
</font>
</defs>
</svg>
